<svg width="284" height="437" viewBox="0 0 284 437" fill="none" xmlns="http://www.w3.org/2000/svg">
<mask id="path-1-outside-1_376_445" maskUnits="userSpaceOnUse" x="21" y="397" width="256" height="33" fill="black">
<rect fill="white" x="21" y="397" width="256" height="33"/>
<path d="M22.5227 428V398.909H26.0455V424.875H39.5682V428H22.5227ZM47.9205 398.909V428H44.5682V398.909H47.9205ZM60.4808 428.511C59.0982 428.511 57.8435 428.251 56.7166 427.73C55.5897 427.2 54.6948 426.438 54.032 425.443C53.3691 424.439 53.0376 423.227 53.0376 421.807C53.0376 420.557 53.2839 419.544 53.7763 418.767C54.2687 417.981 54.9268 417.366 55.7507 416.92C56.5746 416.475 57.4837 416.144 58.478 415.926C59.4818 415.699 60.4903 415.519 61.5036 415.386C62.8293 415.216 63.9041 415.088 64.728 415.003C65.5613 414.908 66.1674 414.752 66.5462 414.534C66.9344 414.316 67.1286 413.937 67.1286 413.398V413.284C67.1286 411.883 66.745 410.794 65.978 410.017C65.2204 409.241 64.0698 408.852 62.5263 408.852C60.9259 408.852 59.6712 409.203 58.7621 409.903C57.853 410.604 57.2138 411.352 56.8445 412.148L53.6626 411.011C54.2308 409.686 54.9884 408.653 55.9354 407.915C56.8918 407.167 57.9335 406.646 59.0604 406.352C60.1967 406.049 61.3142 405.898 62.4126 405.898C63.1134 405.898 63.9183 405.983 64.8274 406.153C65.746 406.314 66.6314 406.651 67.4837 407.162C68.3454 407.673 69.0604 408.445 69.6286 409.477C70.1967 410.509 70.4808 411.892 70.4808 413.625V428H67.1286V425.045H66.9581C66.7308 425.519 66.352 426.026 65.8217 426.565C65.2914 427.105 64.5859 427.564 63.7053 427.943C62.8246 428.322 61.7498 428.511 60.4808 428.511ZM60.9922 425.5C62.3179 425.5 63.4354 425.24 64.3445 424.719C65.263 424.198 65.9543 423.526 66.4183 422.702C66.8918 421.878 67.1286 421.011 67.1286 420.102V417.034C66.9865 417.205 66.674 417.361 66.1911 417.503C65.7176 417.635 65.1683 417.754 64.5433 417.858C63.9278 417.953 63.3265 418.038 62.7393 418.114C62.1617 418.18 61.6929 418.237 61.3331 418.284C60.4619 418.398 59.6475 418.582 58.8899 418.838C58.1418 419.084 57.5357 419.458 57.0717 419.96C56.6172 420.453 56.3899 421.125 56.3899 421.977C56.3899 423.142 56.8208 424.023 57.6825 424.619C58.5537 425.206 59.657 425.5 60.9922 425.5ZM76.5994 428V406.182H79.8381V409.591H80.1222C80.5767 408.426 81.3106 407.522 82.3239 406.878C83.3371 406.224 84.554 405.898 85.9744 405.898C87.4138 405.898 88.6117 406.224 89.5682 406.878C90.5341 407.522 91.2869 408.426 91.8267 409.591H92.054C92.6127 408.464 93.4508 407.569 94.5682 406.906C95.6856 406.234 97.0256 405.898 98.5881 405.898C100.539 405.898 102.134 406.509 103.375 407.73C104.616 408.942 105.236 410.831 105.236 413.398V428H101.884V413.398C101.884 411.788 101.443 410.637 100.562 409.946C99.6818 409.255 98.6449 408.909 97.4517 408.909C95.9176 408.909 94.7292 409.373 93.8864 410.301C93.0436 411.22 92.6222 412.384 92.6222 413.795V428H89.2131V413.057C89.2131 411.816 88.8106 410.817 88.0057 410.06C87.2008 409.293 86.1638 408.909 84.8949 408.909C84.0237 408.909 83.2093 409.141 82.4517 409.605C81.7036 410.069 81.0975 410.713 80.6335 411.537C80.179 412.351 79.9517 413.294 79.9517 414.364V428H76.5994ZM117.786 428.511C116.403 428.511 115.148 428.251 114.021 427.73C112.894 427.2 112 426.438 111.337 425.443C110.674 424.439 110.342 423.227 110.342 421.807C110.342 420.557 110.589 419.544 111.081 418.767C111.573 417.981 112.232 417.366 113.055 416.92C113.879 416.475 114.788 416.144 115.783 415.926C116.786 415.699 117.795 415.519 118.808 415.386C120.134 415.216 121.209 415.088 122.033 415.003C122.866 414.908 123.472 414.752 123.851 414.534C124.239 414.316 124.433 413.937 124.433 413.398V413.284C124.433 411.883 124.05 410.794 123.283 410.017C122.525 409.241 121.375 408.852 119.831 408.852C118.231 408.852 116.976 409.203 116.067 409.903C115.158 410.604 114.518 411.352 114.149 412.148L110.967 411.011C111.536 409.686 112.293 408.653 113.24 407.915C114.196 407.167 115.238 406.646 116.365 406.352C117.501 406.049 118.619 405.898 119.717 405.898C120.418 405.898 121.223 405.983 122.132 406.153C123.051 406.314 123.936 406.651 124.788 407.162C125.65 407.673 126.365 408.445 126.933 409.477C127.501 410.509 127.786 411.892 127.786 413.625V428H124.433V425.045H124.263C124.036 425.519 123.657 426.026 123.126 426.565C122.596 427.105 121.891 427.564 121.01 427.943C120.129 428.322 119.054 428.511 117.786 428.511ZM118.297 425.5C119.623 425.5 120.74 425.24 121.649 424.719C122.568 424.198 123.259 423.526 123.723 422.702C124.196 421.878 124.433 421.011 124.433 420.102V417.034C124.291 417.205 123.979 417.361 123.496 417.503C123.022 417.635 122.473 417.754 121.848 417.858C121.232 417.953 120.631 418.038 120.044 418.114C119.466 418.18 118.998 418.237 118.638 418.284C117.767 418.398 116.952 418.582 116.195 418.838C115.446 419.084 114.84 419.458 114.376 419.96C113.922 420.453 113.695 421.125 113.695 421.977C113.695 423.142 114.125 424.023 114.987 424.619C115.858 425.206 116.962 425.5 118.297 425.5ZM143.677 428.398C141.802 428.398 140.13 428.076 138.663 427.432C137.204 426.788 136.044 425.893 135.183 424.747C134.33 423.592 133.866 422.252 133.79 420.727H137.37C137.446 421.665 137.768 422.474 138.336 423.156C138.904 423.829 139.647 424.349 140.566 424.719C141.485 425.088 142.503 425.273 143.62 425.273C144.87 425.273 145.978 425.055 146.944 424.619C147.91 424.184 148.667 423.578 149.217 422.801C149.766 422.025 150.04 421.125 150.04 420.102C150.04 419.032 149.775 418.09 149.245 417.276C148.715 416.452 147.938 415.808 146.915 415.344C145.893 414.88 144.643 414.648 143.165 414.648H140.836V411.523H143.165C144.321 411.523 145.334 411.314 146.205 410.898C147.086 410.481 147.772 409.894 148.265 409.136C148.767 408.379 149.018 407.489 149.018 406.466C149.018 405.481 148.8 404.624 148.364 403.895C147.929 403.166 147.313 402.598 146.518 402.19C145.732 401.783 144.804 401.58 143.734 401.58C142.73 401.58 141.783 401.764 140.893 402.134C140.012 402.493 139.292 403.019 138.734 403.71C138.175 404.392 137.872 405.216 137.825 406.182H134.415C134.472 404.657 134.932 403.322 135.793 402.176C136.655 401.021 137.782 400.121 139.174 399.477C140.576 398.833 142.114 398.511 143.79 398.511C145.59 398.511 147.133 398.876 148.421 399.605C149.709 400.325 150.699 401.277 151.39 402.46C152.081 403.644 152.427 404.922 152.427 406.295C152.427 407.934 151.996 409.33 151.134 410.486C150.282 411.641 149.122 412.441 147.654 412.886V413.114C149.491 413.417 150.926 414.198 151.958 415.457C152.99 416.707 153.506 418.256 153.506 420.102C153.506 421.684 153.076 423.104 152.214 424.364C151.362 425.614 150.197 426.598 148.719 427.318C147.242 428.038 145.561 428.398 143.677 428.398ZM160.918 428.227C160.217 428.227 159.616 427.976 159.114 427.474C158.612 426.973 158.361 426.371 158.361 425.67C158.361 424.97 158.612 424.368 159.114 423.866C159.616 423.365 160.217 423.114 160.918 423.114C161.618 423.114 162.22 423.365 162.722 423.866C163.223 424.368 163.474 424.97 163.474 425.67C163.474 426.134 163.356 426.561 163.119 426.949C162.892 427.337 162.584 427.65 162.196 427.886C161.817 428.114 161.391 428.227 160.918 428.227ZM169.433 428V425.443L179.036 414.932C180.162 413.701 181.09 412.631 181.82 411.722C182.549 410.803 183.089 409.941 183.439 409.136C183.799 408.322 183.979 407.47 183.979 406.58C183.979 405.557 183.732 404.671 183.24 403.923C182.757 403.175 182.094 402.598 181.251 402.19C180.409 401.783 179.462 401.58 178.411 401.58C177.293 401.58 176.318 401.812 175.484 402.276C174.661 402.73 174.021 403.369 173.567 404.193C173.122 405.017 172.899 405.983 172.899 407.091H169.547C169.547 405.386 169.94 403.89 170.726 402.602C171.512 401.314 172.582 400.311 173.936 399.591C175.3 398.871 176.829 398.511 178.524 398.511C180.229 398.511 181.739 398.871 183.055 399.591C184.372 400.311 185.404 401.281 186.152 402.503C186.9 403.724 187.274 405.083 187.274 406.58C187.274 407.65 187.08 408.696 186.692 409.719C186.313 410.732 185.65 411.864 184.703 413.114C183.766 414.354 182.464 415.869 180.797 417.659L174.263 424.648V424.875H187.786V428H169.433ZM206.209 413.966V417.091H193.482V413.966H206.209ZM212.107 428V406.182H215.46V428H212.107ZM213.812 402.545C213.158 402.545 212.595 402.323 212.121 401.878C211.657 401.433 211.425 400.898 211.425 400.273C211.425 399.648 211.657 399.113 212.121 398.668C212.595 398.223 213.158 398 213.812 398C214.465 398 215.024 398.223 215.488 398.668C215.961 399.113 216.198 399.648 216.198 400.273C216.198 400.898 215.961 401.433 215.488 401.878C215.024 402.323 214.465 402.545 213.812 402.545ZM224.952 414.875V428H221.599V406.182H224.838V409.591H225.122C225.634 408.483 226.41 407.593 227.452 406.92C228.493 406.239 229.838 405.898 231.486 405.898C232.963 405.898 234.256 406.201 235.364 406.807C236.472 407.403 237.333 408.312 237.949 409.534C238.564 410.746 238.872 412.28 238.872 414.136V428H235.52V414.364C235.52 412.65 235.075 411.314 234.185 410.358C233.295 409.392 232.073 408.909 230.52 408.909C229.45 408.909 228.493 409.141 227.651 409.605C226.817 410.069 226.159 410.746 225.676 411.636C225.193 412.527 224.952 413.606 224.952 414.875ZM260.452 411.068L257.441 411.92C257.252 411.419 256.972 410.931 256.603 410.457C256.243 409.974 255.751 409.577 255.126 409.264C254.501 408.952 253.701 408.795 252.725 408.795C251.39 408.795 250.277 409.103 249.387 409.719C248.506 410.325 248.066 411.097 248.066 412.034C248.066 412.867 248.369 413.526 248.975 414.009C249.581 414.491 250.528 414.894 251.816 415.216L255.055 416.011C257.005 416.485 258.459 417.209 259.415 418.185C260.372 419.151 260.85 420.396 260.85 421.92C260.85 423.17 260.49 424.288 259.771 425.273C259.06 426.258 258.066 427.034 256.788 427.602C255.509 428.17 254.022 428.455 252.327 428.455C250.102 428.455 248.26 427.972 246.802 427.006C245.344 426.04 244.42 424.629 244.032 422.773L247.214 421.977C247.517 423.152 248.09 424.032 248.933 424.619C249.785 425.206 250.897 425.5 252.271 425.5C253.833 425.5 255.074 425.169 255.992 424.506C256.92 423.833 257.384 423.028 257.384 422.091C257.384 421.333 257.119 420.699 256.589 420.188C256.058 419.667 255.244 419.278 254.146 419.023L250.509 418.17C248.511 417.697 247.043 416.963 246.106 415.969C245.178 414.965 244.714 413.71 244.714 412.205C244.714 410.973 245.059 409.884 245.751 408.938C246.451 407.991 247.403 407.247 248.606 406.707C249.818 406.168 251.191 405.898 252.725 405.898C254.884 405.898 256.579 406.371 257.81 407.318C259.051 408.265 259.932 409.515 260.452 411.068ZM275.385 406.182V409.023H264.078V406.182H275.385ZM267.374 400.955H270.726V421.75C270.726 422.697 270.863 423.407 271.138 423.881C271.422 424.345 271.782 424.657 272.217 424.818C272.662 424.97 273.131 425.045 273.624 425.045C273.993 425.045 274.296 425.027 274.533 424.989C274.769 424.941 274.959 424.903 275.101 424.875L275.783 427.886C275.555 427.972 275.238 428.057 274.831 428.142C274.424 428.237 273.908 428.284 273.283 428.284C272.336 428.284 271.408 428.08 270.499 427.673C269.599 427.266 268.851 426.646 268.254 425.812C267.667 424.979 267.374 423.928 267.374 422.659V400.955Z"/>
</mask>
<path d="M22.5227 428V398.909H26.0455V424.875H39.5682V428H22.5227ZM47.9205 398.909V428H44.5682V398.909H47.9205ZM60.4808 428.511C59.0982 428.511 57.8435 428.251 56.7166 427.73C55.5897 427.2 54.6948 426.438 54.032 425.443C53.3691 424.439 53.0376 423.227 53.0376 421.807C53.0376 420.557 53.2839 419.544 53.7763 418.767C54.2687 417.981 54.9268 417.366 55.7507 416.92C56.5746 416.475 57.4837 416.144 58.478 415.926C59.4818 415.699 60.4903 415.519 61.5036 415.386C62.8293 415.216 63.9041 415.088 64.728 415.003C65.5613 414.908 66.1674 414.752 66.5462 414.534C66.9344 414.316 67.1286 413.937 67.1286 413.398V413.284C67.1286 411.883 66.745 410.794 65.978 410.017C65.2204 409.241 64.0698 408.852 62.5263 408.852C60.9259 408.852 59.6712 409.203 58.7621 409.903C57.853 410.604 57.2138 411.352 56.8445 412.148L53.6626 411.011C54.2308 409.686 54.9884 408.653 55.9354 407.915C56.8918 407.167 57.9335 406.646 59.0604 406.352C60.1967 406.049 61.3142 405.898 62.4126 405.898C63.1134 405.898 63.9183 405.983 64.8274 406.153C65.746 406.314 66.6314 406.651 67.4837 407.162C68.3454 407.673 69.0604 408.445 69.6286 409.477C70.1967 410.509 70.4808 411.892 70.4808 413.625V428H67.1286V425.045H66.9581C66.7308 425.519 66.352 426.026 65.8217 426.565C65.2914 427.105 64.5859 427.564 63.7053 427.943C62.8246 428.322 61.7498 428.511 60.4808 428.511ZM60.9922 425.5C62.3179 425.5 63.4354 425.24 64.3445 424.719C65.263 424.198 65.9543 423.526 66.4183 422.702C66.8918 421.878 67.1286 421.011 67.1286 420.102V417.034C66.9865 417.205 66.674 417.361 66.1911 417.503C65.7176 417.635 65.1683 417.754 64.5433 417.858C63.9278 417.953 63.3265 418.038 62.7393 418.114C62.1617 418.18 61.6929 418.237 61.3331 418.284C60.4619 418.398 59.6475 418.582 58.8899 418.838C58.1418 419.084 57.5357 419.458 57.0717 419.96C56.6172 420.453 56.3899 421.125 56.3899 421.977C56.3899 423.142 56.8208 424.023 57.6825 424.619C58.5537 425.206 59.657 425.5 60.9922 425.5ZM76.5994 428V406.182H79.8381V409.591H80.1222C80.5767 408.426 81.3106 407.522 82.3239 406.878C83.3371 406.224 84.554 405.898 85.9744 405.898C87.4138 405.898 88.6117 406.224 89.5682 406.878C90.5341 407.522 91.2869 408.426 91.8267 409.591H92.054C92.6127 408.464 93.4508 407.569 94.5682 406.906C95.6856 406.234 97.0256 405.898 98.5881 405.898C100.539 405.898 102.134 406.509 103.375 407.73C104.616 408.942 105.236 410.831 105.236 413.398V428H101.884V413.398C101.884 411.788 101.443 410.637 100.562 409.946C99.6818 409.255 98.6449 408.909 97.4517 408.909C95.9176 408.909 94.7292 409.373 93.8864 410.301C93.0436 411.22 92.6222 412.384 92.6222 413.795V428H89.2131V413.057C89.2131 411.816 88.8106 410.817 88.0057 410.06C87.2008 409.293 86.1638 408.909 84.8949 408.909C84.0237 408.909 83.2093 409.141 82.4517 409.605C81.7036 410.069 81.0975 410.713 80.6335 411.537C80.179 412.351 79.9517 413.294 79.9517 414.364V428H76.5994ZM117.786 428.511C116.403 428.511 115.148 428.251 114.021 427.73C112.894 427.2 112 426.438 111.337 425.443C110.674 424.439 110.342 423.227 110.342 421.807C110.342 420.557 110.589 419.544 111.081 418.767C111.573 417.981 112.232 417.366 113.055 416.92C113.879 416.475 114.788 416.144 115.783 415.926C116.786 415.699 117.795 415.519 118.808 415.386C120.134 415.216 121.209 415.088 122.033 415.003C122.866 414.908 123.472 414.752 123.851 414.534C124.239 414.316 124.433 413.937 124.433 413.398V413.284C124.433 411.883 124.05 410.794 123.283 410.017C122.525 409.241 121.375 408.852 119.831 408.852C118.231 408.852 116.976 409.203 116.067 409.903C115.158 410.604 114.518 411.352 114.149 412.148L110.967 411.011C111.536 409.686 112.293 408.653 113.24 407.915C114.196 407.167 115.238 406.646 116.365 406.352C117.501 406.049 118.619 405.898 119.717 405.898C120.418 405.898 121.223 405.983 122.132 406.153C123.051 406.314 123.936 406.651 124.788 407.162C125.65 407.673 126.365 408.445 126.933 409.477C127.501 410.509 127.786 411.892 127.786 413.625V428H124.433V425.045H124.263C124.036 425.519 123.657 426.026 123.126 426.565C122.596 427.105 121.891 427.564 121.01 427.943C120.129 428.322 119.054 428.511 117.786 428.511ZM118.297 425.5C119.623 425.5 120.74 425.24 121.649 424.719C122.568 424.198 123.259 423.526 123.723 422.702C124.196 421.878 124.433 421.011 124.433 420.102V417.034C124.291 417.205 123.979 417.361 123.496 417.503C123.022 417.635 122.473 417.754 121.848 417.858C121.232 417.953 120.631 418.038 120.044 418.114C119.466 418.18 118.998 418.237 118.638 418.284C117.767 418.398 116.952 418.582 116.195 418.838C115.446 419.084 114.84 419.458 114.376 419.96C113.922 420.453 113.695 421.125 113.695 421.977C113.695 423.142 114.125 424.023 114.987 424.619C115.858 425.206 116.962 425.5 118.297 425.5ZM143.677 428.398C141.802 428.398 140.13 428.076 138.663 427.432C137.204 426.788 136.044 425.893 135.183 424.747C134.33 423.592 133.866 422.252 133.79 420.727H137.37C137.446 421.665 137.768 422.474 138.336 423.156C138.904 423.829 139.647 424.349 140.566 424.719C141.485 425.088 142.503 425.273 143.62 425.273C144.87 425.273 145.978 425.055 146.944 424.619C147.91 424.184 148.667 423.578 149.217 422.801C149.766 422.025 150.04 421.125 150.04 420.102C150.04 419.032 149.775 418.09 149.245 417.276C148.715 416.452 147.938 415.808 146.915 415.344C145.893 414.88 144.643 414.648 143.165 414.648H140.836V411.523H143.165C144.321 411.523 145.334 411.314 146.205 410.898C147.086 410.481 147.772 409.894 148.265 409.136C148.767 408.379 149.018 407.489 149.018 406.466C149.018 405.481 148.8 404.624 148.364 403.895C147.929 403.166 147.313 402.598 146.518 402.19C145.732 401.783 144.804 401.58 143.734 401.58C142.73 401.58 141.783 401.764 140.893 402.134C140.012 402.493 139.292 403.019 138.734 403.71C138.175 404.392 137.872 405.216 137.825 406.182H134.415C134.472 404.657 134.932 403.322 135.793 402.176C136.655 401.021 137.782 400.121 139.174 399.477C140.576 398.833 142.114 398.511 143.79 398.511C145.59 398.511 147.133 398.876 148.421 399.605C149.709 400.325 150.699 401.277 151.39 402.46C152.081 403.644 152.427 404.922 152.427 406.295C152.427 407.934 151.996 409.33 151.134 410.486C150.282 411.641 149.122 412.441 147.654 412.886V413.114C149.491 413.417 150.926 414.198 151.958 415.457C152.99 416.707 153.506 418.256 153.506 420.102C153.506 421.684 153.076 423.104 152.214 424.364C151.362 425.614 150.197 426.598 148.719 427.318C147.242 428.038 145.561 428.398 143.677 428.398ZM160.918 428.227C160.217 428.227 159.616 427.976 159.114 427.474C158.612 426.973 158.361 426.371 158.361 425.67C158.361 424.97 158.612 424.368 159.114 423.866C159.616 423.365 160.217 423.114 160.918 423.114C161.618 423.114 162.22 423.365 162.722 423.866C163.223 424.368 163.474 424.97 163.474 425.67C163.474 426.134 163.356 426.561 163.119 426.949C162.892 427.337 162.584 427.65 162.196 427.886C161.817 428.114 161.391 428.227 160.918 428.227ZM169.433 428V425.443L179.036 414.932C180.162 413.701 181.09 412.631 181.82 411.722C182.549 410.803 183.089 409.941 183.439 409.136C183.799 408.322 183.979 407.47 183.979 406.58C183.979 405.557 183.732 404.671 183.24 403.923C182.757 403.175 182.094 402.598 181.251 402.19C180.409 401.783 179.462 401.58 178.411 401.58C177.293 401.58 176.318 401.812 175.484 402.276C174.661 402.73 174.021 403.369 173.567 404.193C173.122 405.017 172.899 405.983 172.899 407.091H169.547C169.547 405.386 169.94 403.89 170.726 402.602C171.512 401.314 172.582 400.311 173.936 399.591C175.3 398.871 176.829 398.511 178.524 398.511C180.229 398.511 181.739 398.871 183.055 399.591C184.372 400.311 185.404 401.281 186.152 402.503C186.9 403.724 187.274 405.083 187.274 406.58C187.274 407.65 187.08 408.696 186.692 409.719C186.313 410.732 185.65 411.864 184.703 413.114C183.766 414.354 182.464 415.869 180.797 417.659L174.263 424.648V424.875H187.786V428H169.433ZM206.209 413.966V417.091H193.482V413.966H206.209ZM212.107 428V406.182H215.46V428H212.107ZM213.812 402.545C213.158 402.545 212.595 402.323 212.121 401.878C211.657 401.433 211.425 400.898 211.425 400.273C211.425 399.648 211.657 399.113 212.121 398.668C212.595 398.223 213.158 398 213.812 398C214.465 398 215.024 398.223 215.488 398.668C215.961 399.113 216.198 399.648 216.198 400.273C216.198 400.898 215.961 401.433 215.488 401.878C215.024 402.323 214.465 402.545 213.812 402.545ZM224.952 414.875V428H221.599V406.182H224.838V409.591H225.122C225.634 408.483 226.41 407.593 227.452 406.92C228.493 406.239 229.838 405.898 231.486 405.898C232.963 405.898 234.256 406.201 235.364 406.807C236.472 407.403 237.333 408.312 237.949 409.534C238.564 410.746 238.872 412.28 238.872 414.136V428H235.52V414.364C235.52 412.65 235.075 411.314 234.185 410.358C233.295 409.392 232.073 408.909 230.52 408.909C229.45 408.909 228.493 409.141 227.651 409.605C226.817 410.069 226.159 410.746 225.676 411.636C225.193 412.527 224.952 413.606 224.952 414.875ZM260.452 411.068L257.441 411.92C257.252 411.419 256.972 410.931 256.603 410.457C256.243 409.974 255.751 409.577 255.126 409.264C254.501 408.952 253.701 408.795 252.725 408.795C251.39 408.795 250.277 409.103 249.387 409.719C248.506 410.325 248.066 411.097 248.066 412.034C248.066 412.867 248.369 413.526 248.975 414.009C249.581 414.491 250.528 414.894 251.816 415.216L255.055 416.011C257.005 416.485 258.459 417.209 259.415 418.185C260.372 419.151 260.85 420.396 260.85 421.92C260.85 423.17 260.49 424.288 259.771 425.273C259.06 426.258 258.066 427.034 256.788 427.602C255.509 428.17 254.022 428.455 252.327 428.455C250.102 428.455 248.26 427.972 246.802 427.006C245.344 426.04 244.42 424.629 244.032 422.773L247.214 421.977C247.517 423.152 248.09 424.032 248.933 424.619C249.785 425.206 250.897 425.5 252.271 425.5C253.833 425.5 255.074 425.169 255.992 424.506C256.92 423.833 257.384 423.028 257.384 422.091C257.384 421.333 257.119 420.699 256.589 420.188C256.058 419.667 255.244 419.278 254.146 419.023L250.509 418.17C248.511 417.697 247.043 416.963 246.106 415.969C245.178 414.965 244.714 413.71 244.714 412.205C244.714 410.973 245.059 409.884 245.751 408.938C246.451 407.991 247.403 407.247 248.606 406.707C249.818 406.168 251.191 405.898 252.725 405.898C254.884 405.898 256.579 406.371 257.81 407.318C259.051 408.265 259.932 409.515 260.452 411.068ZM275.385 406.182V409.023H264.078V406.182H275.385ZM267.374 400.955H270.726V421.75C270.726 422.697 270.863 423.407 271.138 423.881C271.422 424.345 271.782 424.657 272.217 424.818C272.662 424.97 273.131 425.045 273.624 425.045C273.993 425.045 274.296 425.027 274.533 424.989C274.769 424.941 274.959 424.903 275.101 424.875L275.783 427.886C275.555 427.972 275.238 428.057 274.831 428.142C274.424 428.237 273.908 428.284 273.283 428.284C272.336 428.284 271.408 428.08 270.499 427.673C269.599 427.266 268.851 426.646 268.254 425.812C267.667 424.979 267.374 423.928 267.374 422.659V400.955Z" fill="#545454"/>
<path d="M22.5227 428H21.5227V429H22.5227V428ZM22.5227 398.909V397.909H21.5227V398.909H22.5227ZM26.0455 398.909H27.0455V397.909H26.0455V398.909ZM26.0455 424.875H25.0455V425.875H26.0455V424.875ZM39.5682 424.875H40.5682V423.875H39.5682V424.875ZM39.5682 428V429H40.5682V428H39.5682ZM23.5227 428V398.909H21.5227V428H23.5227ZM22.5227 399.909H26.0455V397.909H22.5227V399.909ZM25.0455 398.909V424.875H27.0455V398.909H25.0455ZM26.0455 425.875H39.5682V423.875H26.0455V425.875ZM38.5682 424.875V428H40.5682V424.875H38.5682ZM39.5682 427H22.5227V429H39.5682V427ZM47.9205 398.909H48.9205V397.909H47.9205V398.909ZM47.9205 428V429H48.9205V428H47.9205ZM44.5682 428H43.5682V429H44.5682V428ZM44.5682 398.909V397.909H43.5682V398.909H44.5682ZM46.9205 398.909V428H48.9205V398.909H46.9205ZM47.9205 427H44.5682V429H47.9205V427ZM45.5682 428V398.909H43.5682V428H45.5682ZM44.5682 399.909H47.9205V397.909H44.5682V399.909ZM56.7166 427.73L56.2908 428.635L56.2971 428.638L56.7166 427.73ZM54.032 425.443L53.1975 425.994L53.1999 425.998L54.032 425.443ZM53.7763 418.767L54.6208 419.303L54.6237 419.298L53.7763 418.767ZM58.478 415.926L58.692 416.903L58.6988 416.901L58.478 415.926ZM61.5036 415.386L61.376 414.395L61.3738 414.395L61.5036 415.386ZM64.728 415.003L64.8309 415.998L64.8409 415.996L64.728 415.003ZM66.5462 414.534L66.0569 413.662L66.0477 413.667L66.5462 414.534ZM65.978 410.017L65.2622 410.715L65.2666 410.72L65.978 410.017ZM58.7621 409.903L59.3726 410.695L59.3726 410.695L58.7621 409.903ZM56.8445 412.148L56.5081 413.089L57.3673 413.396L57.7515 412.569L56.8445 412.148ZM53.6626 411.011L52.7435 410.617L52.3244 411.595L53.3263 411.953L53.6626 411.011ZM55.9354 407.915L56.5504 408.703L56.5515 408.702L55.9354 407.915ZM59.0604 406.352L59.3125 407.32L59.318 407.319L59.0604 406.352ZM64.8274 406.153L64.6431 407.136L64.6548 407.138L64.8274 406.153ZM67.4837 407.162L66.9692 408.019L66.9733 408.022L67.4837 407.162ZM69.6286 409.477L68.7525 409.959L68.7525 409.96L69.6286 409.477ZM70.4808 428V429H71.4808V428H70.4808ZM67.1286 428H66.1286V429H67.1286V428ZM67.1286 425.045H68.1286V424.045H67.1286V425.045ZM66.9581 425.045V424.045H66.3289L66.0566 424.613L66.9581 425.045ZM65.8217 426.565L66.5351 427.266L66.5351 427.266L65.8217 426.565ZM63.7053 427.943L63.3101 427.025L63.3101 427.025L63.7053 427.943ZM64.3445 424.719L63.8512 423.849L63.8473 423.851L64.3445 424.719ZM66.4183 422.702L65.5513 422.203L65.547 422.211L66.4183 422.702ZM67.1286 417.034H68.1286V414.272L66.3603 416.394L67.1286 417.034ZM66.1911 417.503L66.4607 418.466L66.4732 418.462L66.1911 417.503ZM64.5433 417.858L64.6954 418.846L64.7077 418.844L64.5433 417.858ZM62.7393 418.114L62.8534 419.107L62.8673 419.105L62.7393 418.114ZM61.3331 418.284L61.4624 419.276L61.4636 419.276L61.3331 418.284ZM58.8899 418.838L59.2025 419.788L59.2097 419.786L58.8899 418.838ZM57.0717 419.96L56.3375 419.281L56.3369 419.282L57.0717 419.96ZM57.6825 424.619L57.1133 425.442L57.1237 425.449L57.6825 424.619ZM60.4808 427.511C59.2265 427.511 58.1173 427.276 57.1362 426.822L56.2971 428.638C57.5697 429.226 58.97 429.511 60.4808 429.511V427.511ZM57.1424 426.825C56.173 426.369 55.4215 425.725 54.864 424.888L53.1999 425.998C53.9682 427.15 55.0064 428.031 56.2908 428.635L57.1424 426.825ZM54.8664 424.892C54.3298 424.08 54.0376 423.067 54.0376 421.807H52.0376C52.0376 423.387 52.4083 424.799 53.1975 425.994L54.8664 424.892ZM54.0376 421.807C54.0376 420.68 54.2603 419.871 54.6208 419.303L52.9318 418.232C52.3074 419.216 52.0376 420.433 52.0376 421.807H54.0376ZM54.6237 419.298C55.0234 418.66 55.5527 418.164 56.226 417.8L55.2754 416.041C54.301 416.567 53.514 417.302 52.9289 418.236L54.6237 419.298ZM56.226 417.8C56.9609 417.403 57.781 417.103 58.692 416.903L58.264 414.949C57.1864 415.185 56.1882 415.547 55.2754 416.041L56.226 417.8ZM58.6988 416.901C59.6727 416.681 60.6508 416.506 61.6333 416.378L61.3738 414.395C60.3297 414.531 59.2908 414.717 58.2572 414.951L58.6988 416.901ZM61.6311 416.378C62.9529 416.208 64.0186 416.082 64.8309 415.998L64.6251 414.008C63.7896 414.095 62.7057 414.224 61.376 414.395L61.6311 416.378ZM64.8409 415.996C65.7081 415.898 66.4826 415.724 67.0446 415.401L66.0477 413.667C65.8522 413.78 65.4146 413.918 64.6151 414.009L64.8409 415.996ZM67.0354 415.406C67.8112 414.971 68.1286 414.208 68.1286 413.398H66.1286C66.1286 413.55 66.101 413.615 66.093 413.631C66.0892 413.638 66.0868 413.641 66.0854 413.642C66.0837 413.644 66.0763 413.651 66.0569 413.662L67.0354 415.406ZM68.1286 413.398V413.284H66.1286V413.398H68.1286ZM68.1286 413.284C68.1286 411.698 67.6898 410.327 66.6894 409.314L65.2666 410.72C65.8003 411.26 66.1286 412.068 66.1286 413.284H68.1286ZM66.6938 409.319C65.6803 408.28 64.2239 407.852 62.5263 407.852V409.852C63.9157 409.852 64.7605 410.201 65.2622 410.715L66.6938 409.319ZM62.5263 407.852C60.7904 407.852 59.293 408.232 58.1516 409.111L59.3726 410.695C60.0494 410.174 61.0614 409.852 62.5263 409.852V407.852ZM58.1516 409.111C57.1532 409.881 56.392 410.748 55.9375 411.727L57.7515 412.569C58.0355 411.957 58.5528 411.327 59.3726 410.695L58.1516 409.111ZM57.1808 411.206L53.999 410.07L53.3263 411.953L56.5081 413.089L57.1808 411.206ZM54.5818 411.405C55.0968 410.204 55.7608 409.319 56.5504 408.703L55.3203 407.126C54.216 407.988 53.3648 409.168 52.7435 410.617L54.5818 411.405ZM56.5515 408.702C57.4049 408.035 58.3236 407.578 59.3125 407.32L58.8083 405.385C57.5434 405.714 56.3788 406.298 55.3193 407.127L56.5515 408.702ZM59.318 407.319C60.3762 407.036 61.4071 406.898 62.4126 406.898V404.898C61.2213 404.898 60.0172 405.062 58.8027 405.386L59.318 407.319ZM62.4126 406.898C63.0356 406.898 63.7768 406.974 64.6431 407.136L65.0117 405.171C64.0599 404.992 63.1912 404.898 62.4126 404.898V406.898ZM64.6548 407.138C65.4448 407.277 66.2151 407.567 66.9692 408.019L67.9982 406.304C67.0477 405.734 66.0472 405.352 65 405.168L64.6548 407.138ZM66.9733 408.022C67.6566 408.427 68.2551 409.056 68.7525 409.959L70.5046 408.995C69.8656 407.834 69.0343 406.919 67.994 406.302L66.9733 408.022ZM68.7525 409.96C69.21 410.791 69.4808 411.987 69.4808 413.625H71.4808C71.4808 411.797 71.1835 410.228 70.5046 408.995L68.7525 409.96ZM69.4808 413.625V428H71.4808V413.625H69.4808ZM70.4808 427H67.1286V429H70.4808V427ZM68.1286 428V425.045H66.1286V428H68.1286ZM67.1286 424.045H66.9581V426.045H67.1286V424.045ZM66.0566 424.613C65.8928 424.954 65.5926 425.372 65.1084 425.865L66.5351 427.266C67.1115 426.679 67.5688 426.084 67.8596 425.478L66.0566 424.613ZM65.1084 425.865C64.6898 426.291 64.1022 426.684 63.3101 427.025L64.1004 428.862C65.0697 428.445 65.8931 427.92 66.5351 427.266L65.1084 425.865ZM63.3101 427.025C62.5876 427.335 61.6556 427.511 60.4808 427.511V429.511C61.8439 429.511 63.0615 429.309 64.1004 428.862L63.3101 427.025ZM60.9922 426.5C62.4468 426.5 63.746 426.214 64.8416 425.586L63.8473 423.851C63.1247 424.265 62.1891 424.5 60.9922 424.5V426.5ZM64.8377 425.589C65.8954 424.989 66.7263 424.193 67.2896 423.192L65.547 422.211C65.1823 422.858 64.6306 423.407 63.8512 423.849L64.8377 425.589ZM67.2853 423.2C67.8418 422.232 68.1286 421.194 68.1286 420.102H66.1286C66.1286 420.828 65.9418 421.524 65.5513 422.203L67.2853 423.2ZM68.1286 420.102V417.034H66.1286V420.102H68.1286ZM66.3603 416.394C66.4138 416.33 66.4364 416.337 66.3404 416.385C66.2547 416.428 66.116 416.483 65.9089 416.543L66.4732 418.462C66.749 418.381 67.0081 418.287 67.2349 418.174C67.4513 418.065 67.7013 417.909 67.8968 417.674L66.3603 416.394ZM65.9214 416.54C65.4908 416.66 64.978 416.772 64.3789 416.872L64.7077 418.844C65.3587 418.736 65.9444 418.61 66.4607 418.466L65.9214 416.54ZM64.3913 416.87C63.7833 416.963 63.1901 417.047 62.6114 417.122L62.8673 419.105C63.4629 419.029 64.0722 418.942 64.6954 418.846L64.3913 416.87ZM62.6253 417.12C62.045 417.187 61.5702 417.244 61.2026 417.293L61.4636 419.276C61.8157 419.229 62.2784 419.173 62.8534 419.107L62.6253 417.12ZM61.2038 417.292C60.2741 417.414 59.3953 417.612 58.5701 417.891L59.2097 419.786C59.8996 419.553 60.6497 419.382 61.4624 419.276L61.2038 417.292ZM58.5773 417.888C57.6927 418.179 56.9333 418.637 56.3375 419.281L57.806 420.639C58.1382 420.28 58.5909 419.989 59.2025 419.788L58.5773 417.888ZM56.3369 419.282C55.6692 420.005 55.3899 420.944 55.3899 421.977H57.3899C57.3899 421.306 57.5652 420.9 57.8065 420.639L56.3369 419.282ZM55.3899 421.977C55.3899 423.428 55.9485 424.635 57.1133 425.442L58.2517 423.797C57.6931 423.41 57.3899 422.857 57.3899 421.977H55.3899ZM57.1237 425.449C58.1996 426.174 59.5116 426.5 60.9922 426.5V424.5C59.8023 424.5 58.9079 424.239 58.2414 423.79L57.1237 425.449ZM76.5994 428H75.5994V429H76.5994V428ZM76.5994 406.182V405.182H75.5994V406.182H76.5994ZM79.8381 406.182H80.8381V405.182H79.8381V406.182ZM79.8381 409.591H78.8381V410.591H79.8381V409.591ZM80.1222 409.591V410.591H80.8054L81.0537 409.954L80.1222 409.591ZM82.3239 406.878L82.8602 407.722L82.8658 407.718L82.3239 406.878ZM89.5682 406.878L89.004 407.704L89.0135 407.71L89.5682 406.878ZM91.8267 409.591L90.9194 410.011L91.188 410.591H91.8267V409.591ZM92.054 409.591V410.591H92.6743L92.9499 410.035L92.054 409.591ZM94.5682 406.906L95.0784 407.766L95.0837 407.763L94.5682 406.906ZM103.375 407.73L102.673 408.443L102.676 408.445L103.375 407.73ZM105.236 428V429H106.236V428H105.236ZM101.884 428H100.884V429H101.884V428ZM100.562 409.946L99.9451 410.733L99.9451 410.733L100.562 409.946ZM93.8864 410.301L94.6232 410.977L94.6266 410.973L93.8864 410.301ZM92.6222 428V429H93.6222V428H92.6222ZM89.2131 428H88.2131V429H89.2131V428ZM88.0057 410.06L87.3158 410.784L87.3203 410.788L88.0057 410.06ZM82.4517 409.605L81.9294 408.752L81.9246 408.755L82.4517 409.605ZM80.6335 411.537L79.7622 411.046L79.7603 411.05L80.6335 411.537ZM79.9517 428V429H80.9517V428H79.9517ZM77.5994 428V406.182H75.5994V428H77.5994ZM76.5994 407.182H79.8381V405.182H76.5994V407.182ZM78.8381 406.182V409.591H80.8381V406.182H78.8381ZM79.8381 410.591H80.1222V408.591H79.8381V410.591ZM81.0537 409.954C81.4344 408.979 82.0342 408.247 82.8602 407.722L81.7875 406.034C80.587 406.797 79.719 407.873 79.1906 409.227L81.0537 409.954ZM82.8658 407.718C83.6905 407.186 84.7114 406.898 85.9744 406.898V404.898C84.3966 404.898 82.9837 405.262 81.7819 406.037L82.8658 407.718ZM85.9744 406.898C87.2617 406.898 88.2503 407.189 89.0041 407.704L90.1323 406.052C88.9732 405.26 87.566 404.898 85.9744 404.898V406.898ZM89.0135 407.71C89.8103 408.241 90.4486 408.995 90.9194 410.011L92.734 409.17C92.1253 407.857 91.2579 406.802 90.1229 406.046L89.0135 407.71ZM91.8267 410.591H92.054V408.591H91.8267V410.591ZM92.9499 410.035C93.4199 409.087 94.1212 408.334 95.0784 407.766L94.058 406.046C92.7803 406.804 91.8054 407.841 91.158 409.147L92.9499 410.035ZM95.0837 407.763C96.0172 407.201 97.1711 406.898 98.5881 406.898V404.898C96.8801 404.898 95.354 405.266 94.0526 406.049L95.0837 407.763ZM98.5881 406.898C100.311 406.898 101.643 407.428 102.673 408.443L104.077 407.018C102.626 405.589 100.767 404.898 98.5881 404.898V406.898ZM102.676 408.445C103.648 409.395 104.236 410.972 104.236 413.398H106.236C106.236 410.691 105.583 408.489 104.074 407.015L102.676 408.445ZM104.236 413.398V428H106.236V413.398H104.236ZM105.236 427H101.884V429H105.236V427ZM102.884 428V413.398H100.884V428H102.884ZM102.884 413.398C102.884 411.621 102.395 410.113 101.18 409.159L99.9451 410.733C100.492 411.162 100.884 411.954 100.884 413.398H102.884ZM101.18 409.159C100.111 408.32 98.853 407.909 97.4517 407.909V409.909C98.4367 409.909 99.2525 410.189 99.9451 410.733L101.18 409.159ZM97.4517 407.909C95.7038 407.909 94.2198 408.446 93.1461 409.629L94.6266 410.973C95.2385 410.3 96.1314 409.909 97.4517 409.909V407.909ZM93.1495 409.625C92.1149 410.753 91.6222 412.17 91.6222 413.795H93.6222C93.6222 412.599 93.9722 411.687 94.6232 410.977L93.1495 409.625ZM91.6222 413.795V428H93.6222V413.795H91.6222ZM92.6222 427H89.2131V429H92.6222V427ZM90.2131 428V413.057H88.2131V428H90.2131ZM90.2131 413.057C90.2131 411.578 89.7223 410.302 88.691 409.331L87.3203 410.788C87.8989 411.332 88.2131 412.055 88.2131 413.057H90.2131ZM88.6956 409.336C87.6781 408.366 86.3816 407.909 84.8949 407.909V409.909C85.9461 409.909 86.7234 410.219 87.3158 410.784L88.6956 409.336ZM84.8949 407.909C83.8355 407.909 82.8409 408.194 81.9294 408.752L82.974 410.458C83.5777 410.088 84.2118 409.909 84.8949 409.909V407.909ZM81.9246 408.755C81.0228 409.315 80.3026 410.087 79.7622 411.046L81.5048 412.028C81.8925 411.339 82.3844 410.824 82.9788 410.455L81.9246 408.755ZM79.7603 411.05C79.2111 412.034 78.9517 413.148 78.9517 414.364H80.9517C80.9517 413.439 81.1469 412.669 81.5067 412.024L79.7603 411.05ZM78.9517 414.364V428H80.9517V414.364H78.9517ZM79.9517 427H76.5994V429H79.9517V427ZM114.021 427.73L113.595 428.635L113.602 428.638L114.021 427.73ZM111.337 425.443L110.502 425.994L110.505 425.998L111.337 425.443ZM111.081 418.767L111.925 419.303L111.928 419.298L111.081 418.767ZM115.783 415.926L115.997 416.903L116.003 416.901L115.783 415.926ZM118.808 415.386L118.681 414.395L118.679 414.395L118.808 415.386ZM122.033 415.003L122.136 415.998L122.146 415.996L122.033 415.003ZM123.851 414.534L123.362 413.662L123.352 413.667L123.851 414.534ZM123.283 410.017L122.567 410.715L122.571 410.72L123.283 410.017ZM116.067 409.903L116.677 410.695L116.677 410.695L116.067 409.903ZM114.149 412.148L113.813 413.089L114.672 413.396L115.056 412.569L114.149 412.148ZM110.967 411.011L110.048 410.617L109.629 411.595L110.631 411.953L110.967 411.011ZM113.24 407.915L113.855 408.703L113.856 408.702L113.24 407.915ZM116.365 406.352L116.617 407.32L116.623 407.319L116.365 406.352ZM122.132 406.153L121.948 407.136L121.959 407.138L122.132 406.153ZM124.788 407.162L124.274 408.019L124.278 408.022L124.788 407.162ZM126.933 409.477L126.057 409.959L126.057 409.96L126.933 409.477ZM127.786 428V429H128.786V428H127.786ZM124.433 428H123.433V429H124.433V428ZM124.433 425.045H125.433V424.045H124.433V425.045ZM124.263 425.045V424.045H123.634L123.361 424.613L124.263 425.045ZM123.126 426.565L123.84 427.266L123.84 427.266L123.126 426.565ZM121.01 427.943L120.615 427.025L120.615 427.025L121.01 427.943ZM121.649 424.719L121.156 423.849L121.152 423.851L121.649 424.719ZM123.723 422.702L122.856 422.203L122.852 422.211L123.723 422.702ZM124.433 417.034H125.433V414.272L123.665 416.394L124.433 417.034ZM123.496 417.503L123.765 418.466L123.778 418.462L123.496 417.503ZM121.848 417.858L122 418.846L122.012 418.844L121.848 417.858ZM120.044 418.114L120.158 419.107L120.172 419.105L120.044 418.114ZM118.638 418.284L118.767 419.276L118.768 419.276L118.638 418.284ZM116.195 418.838L116.507 419.788L116.514 419.786L116.195 418.838ZM114.376 419.96L113.642 419.281L113.642 419.282L114.376 419.96ZM114.987 424.619L114.418 425.442L114.428 425.449L114.987 424.619ZM117.786 427.511C116.531 427.511 115.422 427.276 114.441 426.822L113.602 428.638C114.874 429.226 116.275 429.511 117.786 429.511V427.511ZM114.447 426.825C113.478 426.369 112.726 425.725 112.169 424.888L110.505 425.998C111.273 427.15 112.311 428.031 113.596 428.635L114.447 426.825ZM112.171 424.892C111.635 424.08 111.342 423.067 111.342 421.807H109.342C109.342 423.387 109.713 424.799 110.502 425.994L112.171 424.892ZM111.342 421.807C111.342 420.68 111.565 419.871 111.925 419.303L110.236 418.232C109.612 419.216 109.342 420.433 109.342 421.807H111.342ZM111.928 419.298C112.328 418.66 112.857 418.164 113.531 417.8L112.58 416.041C111.606 416.567 110.819 417.302 110.234 418.236L111.928 419.298ZM113.531 417.8C114.266 417.403 115.086 417.103 115.997 416.903L115.569 414.949C114.491 415.185 113.493 415.547 112.58 416.041L113.531 417.8ZM116.003 416.901C116.977 416.681 117.956 416.506 118.938 416.378L118.679 414.395C117.634 414.531 116.596 414.717 115.562 414.951L116.003 416.901ZM118.936 416.378C120.258 416.208 121.323 416.082 122.136 415.998L121.93 414.008C121.094 414.095 120.01 414.224 118.681 414.395L118.936 416.378ZM122.146 415.996C123.013 415.898 123.787 415.724 124.349 415.401L123.352 413.667C123.157 413.78 122.719 413.918 121.92 414.009L122.146 415.996ZM124.34 415.406C125.116 414.971 125.433 414.208 125.433 413.398H123.433C123.433 413.55 123.406 413.615 123.398 413.631C123.394 413.638 123.391 413.641 123.39 413.642C123.388 413.644 123.381 413.651 123.362 413.662L124.34 415.406ZM125.433 413.398V413.284H123.433V413.398H125.433ZM125.433 413.284C125.433 411.698 124.994 410.327 123.994 409.314L122.571 410.72C123.105 411.26 123.433 412.068 123.433 413.284H125.433ZM123.998 409.319C122.985 408.28 121.529 407.852 119.831 407.852V409.852C121.22 409.852 122.065 410.201 122.567 410.715L123.998 409.319ZM119.831 407.852C118.095 407.852 116.598 408.232 115.456 409.111L116.677 410.695C117.354 410.174 118.366 409.852 119.831 409.852V407.852ZM115.456 409.111C114.458 409.881 113.697 410.748 113.242 411.727L115.056 412.569C115.34 411.957 115.857 411.327 116.677 410.695L115.456 409.111ZM114.485 411.206L111.304 410.07L110.631 411.953L113.813 413.089L114.485 411.206ZM111.886 411.405C112.402 410.204 113.065 409.319 113.855 408.703L112.625 407.126C111.521 407.988 110.67 409.168 110.048 410.617L111.886 411.405ZM113.856 408.702C114.71 408.035 115.628 407.578 116.617 407.32L116.113 405.385C114.848 405.714 113.683 406.298 112.624 407.127L113.856 408.702ZM116.623 407.319C117.681 407.036 118.712 406.898 119.717 406.898V404.898C118.526 404.898 117.322 405.062 116.107 405.386L116.623 407.319ZM119.717 406.898C120.34 406.898 121.081 406.974 121.948 407.136L122.316 405.171C121.365 404.992 120.496 404.898 119.717 404.898V406.898ZM121.959 407.138C122.749 407.277 123.52 407.567 124.274 408.019L125.303 406.304C124.352 405.734 123.352 405.352 122.305 405.168L121.959 407.138ZM124.278 408.022C124.961 408.427 125.56 409.056 126.057 409.959L127.809 408.995C127.17 407.834 126.339 406.919 125.299 406.302L124.278 408.022ZM126.057 409.96C126.515 410.791 126.786 411.987 126.786 413.625H128.786C128.786 411.797 128.488 410.228 127.809 408.995L126.057 409.96ZM126.786 413.625V428H128.786V413.625H126.786ZM127.786 427H124.433V429H127.786V427ZM125.433 428V425.045H123.433V428H125.433ZM124.433 424.045H124.263V426.045H124.433V424.045ZM123.361 424.613C123.198 424.954 122.897 425.372 122.413 425.865L123.84 427.266C124.416 426.679 124.874 426.084 125.164 425.478L123.361 424.613ZM122.413 425.865C121.994 426.291 121.407 426.684 120.615 427.025L121.405 428.862C122.374 428.445 123.198 427.92 123.84 427.266L122.413 425.865ZM120.615 427.025C119.892 427.335 118.96 427.511 117.786 427.511V429.511C119.149 429.511 120.366 429.309 121.405 428.862L120.615 427.025ZM118.297 426.5C119.752 426.5 121.051 426.214 122.146 425.586L121.152 423.851C120.429 424.265 119.494 424.5 118.297 424.5V426.5ZM122.142 425.589C123.2 424.989 124.031 424.193 124.594 423.192L122.852 422.211C122.487 422.858 121.935 423.407 121.156 423.849L122.142 425.589ZM124.59 423.2C125.147 422.232 125.433 421.194 125.433 420.102H123.433C123.433 420.828 123.246 421.524 122.856 422.203L124.59 423.2ZM125.433 420.102V417.034H123.433V420.102H125.433ZM123.665 416.394C123.718 416.33 123.741 416.337 123.645 416.385C123.559 416.428 123.421 416.483 123.214 416.543L123.778 418.462C124.054 418.381 124.313 418.287 124.54 418.174C124.756 418.065 125.006 417.909 125.201 417.674L123.665 416.394ZM123.226 416.54C122.795 416.66 122.283 416.772 121.684 416.872L122.012 418.844C122.663 418.736 123.249 418.61 123.765 418.466L123.226 416.54ZM121.696 416.87C121.088 416.963 120.495 417.047 119.916 417.122L120.172 419.105C120.768 419.029 121.377 418.942 122 418.846L121.696 416.87ZM119.93 417.12C119.35 417.187 118.875 417.244 118.507 417.293L118.768 419.276C119.12 419.229 119.583 419.173 120.158 419.107L119.93 417.12ZM118.508 417.292C117.579 417.414 116.7 417.612 115.875 417.891L116.514 419.786C117.204 419.553 117.954 419.382 118.767 419.276L118.508 417.292ZM115.882 417.888C114.997 418.179 114.238 418.637 113.642 419.281L115.111 420.639C115.443 420.28 115.896 419.989 116.507 419.788L115.882 417.888ZM113.642 419.282C112.974 420.005 112.695 420.944 112.695 421.977H114.695C114.695 421.306 114.87 420.9 115.111 420.639L113.642 419.282ZM112.695 421.977C112.695 423.428 113.253 424.635 114.418 425.442L115.556 423.797C114.998 423.41 114.695 422.857 114.695 421.977H112.695ZM114.428 425.449C115.504 426.174 116.816 426.5 118.297 426.5V424.5C117.107 424.5 116.213 424.239 115.546 423.79L114.428 425.449ZM138.663 427.432L138.259 428.347L138.261 428.348L138.663 427.432ZM135.183 424.747L134.378 425.341L134.383 425.348L135.183 424.747ZM133.79 420.727V419.727H132.74L132.792 420.777L133.79 420.727ZM137.37 420.727L138.367 420.647L138.292 419.727H137.37V420.727ZM138.336 423.156L137.568 423.796L137.572 423.802L138.336 423.156ZM140.566 424.719L140.193 425.647L140.193 425.647L140.566 424.719ZM149.217 422.801L148.4 422.224L148.4 422.224L149.217 422.801ZM149.245 417.276L148.404 417.817L148.407 417.821L149.245 417.276ZM146.915 415.344L146.502 416.254L146.502 416.254L146.915 415.344ZM140.836 414.648H139.836V415.648H140.836V414.648ZM140.836 411.523V410.523H139.836V411.523H140.836ZM146.205 410.898L145.778 409.994L145.774 409.996L146.205 410.898ZM148.265 409.136L147.431 408.584L147.426 408.591L148.265 409.136ZM148.364 403.895L149.223 403.382L149.223 403.382L148.364 403.895ZM146.518 402.19L146.058 403.078L146.062 403.08L146.518 402.19ZM140.893 402.134L141.271 403.059L141.276 403.057L140.893 402.134ZM138.734 403.71L139.507 404.344L139.511 404.339L138.734 403.71ZM137.825 406.182V407.182H138.777L138.823 406.231L137.825 406.182ZM134.415 406.182L133.416 406.145L133.378 407.182H134.415V406.182ZM135.793 402.176L136.593 402.777L136.595 402.774L135.793 402.176ZM139.174 399.477L138.757 398.569L138.754 398.57L139.174 399.477ZM148.421 399.605L147.928 400.475L147.933 400.478L148.421 399.605ZM151.39 402.46L150.526 402.965L150.526 402.965L151.39 402.46ZM151.134 410.486L150.333 409.888L150.33 409.892L151.134 410.486ZM147.654 412.886L147.364 411.929L146.654 412.145V412.886H147.654ZM147.654 413.114H146.654V413.962L147.491 414.1L147.654 413.114ZM151.958 415.457L151.185 416.091L151.187 416.094L151.958 415.457ZM152.214 424.364L151.388 423.799L151.388 423.8L152.214 424.364ZM148.719 427.318L149.157 428.217L149.157 428.217L148.719 427.318ZM143.677 427.398C141.917 427.398 140.386 427.096 139.064 426.516L138.261 428.348C139.875 429.056 141.687 429.398 143.677 429.398V427.398ZM139.067 426.517C137.747 425.934 136.73 425.14 135.982 424.146L134.383 425.348C135.359 426.646 136.662 427.641 138.259 428.347L139.067 426.517ZM135.987 424.154C135.259 423.167 134.856 422.019 134.789 420.678L132.792 420.777C132.877 422.485 133.401 424.017 134.378 425.341L135.987 424.154ZM133.79 421.727H137.37V419.727H133.79V421.727ZM136.373 420.808C136.465 421.938 136.859 422.946 137.568 423.796L139.104 422.516C138.676 422.002 138.427 421.392 138.367 420.647L136.373 420.808ZM137.572 423.802C138.258 424.613 139.142 425.224 140.193 425.647L140.939 423.791C140.153 423.475 139.55 423.044 139.1 422.511L137.572 423.802ZM140.193 425.647C141.244 426.069 142.391 426.273 143.62 426.273V424.273C142.614 424.273 141.725 424.107 140.939 423.791L140.193 425.647ZM143.62 426.273C144.987 426.273 146.239 426.034 147.355 425.531L146.533 423.708C145.717 424.076 144.753 424.273 143.62 424.273V426.273ZM147.355 425.531C148.464 425.031 149.369 424.317 150.033 423.379L148.4 422.224C147.965 422.839 147.355 423.337 146.533 423.708L147.355 425.531ZM150.033 423.379C150.711 422.42 151.04 421.315 151.04 420.102H149.04C149.04 420.935 148.821 421.629 148.4 422.224L150.033 423.379ZM151.04 420.102C151.04 418.859 150.73 417.723 150.083 416.73L148.407 417.821C148.821 418.457 149.04 419.206 149.04 420.102H151.04ZM150.086 416.734C149.437 415.726 148.5 414.965 147.329 414.433L146.502 416.254C147.376 416.651 147.993 417.177 148.404 417.817L150.086 416.734ZM147.329 414.433C146.142 413.895 144.742 413.648 143.165 413.648V415.648C144.543 415.648 145.643 415.865 146.502 416.254L147.329 414.433ZM143.165 413.648H140.836V415.648H143.165V413.648ZM141.836 414.648V411.523H139.836V414.648H141.836ZM140.836 412.523H143.165V410.523H140.836V412.523ZM143.165 412.523C144.441 412.523 145.607 412.292 146.637 411.8L145.774 409.996C145.061 410.336 144.2 410.523 143.165 410.523V412.523ZM146.633 411.802C147.668 411.312 148.502 410.607 149.103 409.681L147.426 408.591C147.043 409.181 146.504 409.65 145.778 409.994L146.633 411.802ZM149.099 409.689C149.722 408.747 150.018 407.66 150.018 406.466H148.018C148.018 407.318 147.811 408.01 147.431 408.584L149.099 409.689ZM150.018 406.466C150.018 405.33 149.765 404.29 149.223 403.382L147.506 404.408C147.835 404.959 148.018 405.632 148.018 406.466H150.018ZM149.223 403.382C148.686 402.483 147.927 401.788 146.973 401.3L146.062 403.08C146.7 403.407 147.172 403.848 147.506 404.408L149.223 403.382ZM146.978 401.302C146.023 400.808 144.931 400.58 143.734 400.58V402.58C144.677 402.58 145.441 402.759 146.058 403.078L146.978 401.302ZM143.734 400.58C142.604 400.58 141.526 400.788 140.51 401.21L141.276 403.057C142.04 402.74 142.856 402.58 143.734 402.58V400.58ZM140.515 401.208C139.489 401.627 138.628 402.25 137.956 403.082L139.511 404.339C139.957 403.788 140.535 403.36 141.271 403.059L140.515 401.208ZM137.96 403.076C137.252 403.94 136.883 404.975 136.826 406.133L138.823 406.231C138.861 405.457 139.098 404.844 139.507 404.344L137.96 403.076ZM137.825 405.182H134.415V407.182H137.825V405.182ZM135.415 406.219C135.465 404.885 135.862 403.749 136.593 402.777L134.994 401.575C134.002 402.895 133.48 404.43 133.416 406.145L135.415 406.219ZM136.595 402.774C137.351 401.761 138.343 400.964 139.594 400.385L138.754 398.57C137.221 399.279 135.959 400.281 134.992 401.578L136.595 402.774ZM139.592 400.386C140.851 399.807 142.246 399.511 143.79 399.511V397.511C141.983 397.511 140.3 397.859 138.757 398.569L139.592 400.386ZM143.79 399.511C145.454 399.511 146.82 399.848 147.928 400.475L148.914 398.735C147.446 397.904 145.725 397.511 143.79 397.511V399.511ZM147.933 400.478C149.078 401.118 149.932 401.947 150.526 402.965L152.253 401.956C151.465 400.606 150.34 399.532 148.909 398.732L147.933 400.478ZM150.526 402.965C151.128 403.995 151.427 405.099 151.427 406.295H153.427C153.427 404.745 153.034 403.293 152.253 401.956L150.526 402.965ZM151.427 406.295C151.427 407.749 151.048 408.928 150.333 409.888L151.936 411.084C152.944 409.733 153.427 408.118 153.427 406.295H151.427ZM150.33 409.892C149.614 410.862 148.641 411.542 147.364 411.929L147.944 413.843C149.603 413.34 150.95 412.42 151.939 411.079L150.33 409.892ZM146.654 412.886V413.114H148.654V412.886H146.654ZM147.491 414.1C149.125 414.37 150.328 415.046 151.185 416.091L152.732 414.824C151.523 413.349 149.857 412.463 147.817 412.127L147.491 414.1ZM151.187 416.094C152.051 417.14 152.506 418.454 152.506 420.102H154.506C154.506 418.057 153.93 416.275 152.729 414.821L151.187 416.094ZM152.506 420.102C152.506 421.49 152.132 422.712 151.388 423.799L153.039 424.928C154.019 423.496 154.506 421.877 154.506 420.102H152.506ZM151.388 423.8C150.642 424.894 149.616 425.769 148.281 426.419L149.157 428.217C150.777 427.428 152.081 426.333 153.04 424.927L151.388 423.8ZM148.281 426.419C146.959 427.063 145.432 427.398 143.677 427.398V429.398C145.691 429.398 147.525 429.012 149.157 428.217L148.281 426.419ZM159.114 427.474L159.821 426.767L159.821 426.767L159.114 427.474ZM162.722 423.866L163.429 423.159L163.429 423.159L162.722 423.866ZM163.119 426.949L162.266 426.428L162.261 426.436L162.256 426.444L163.119 426.949ZM162.196 427.886L162.711 428.744L162.717 428.74L162.196 427.886ZM160.918 427.227C160.486 427.227 160.138 427.084 159.821 426.767L158.407 428.182C159.093 428.868 159.948 429.227 160.918 429.227V427.227ZM159.821 426.767C159.504 426.45 159.361 426.102 159.361 425.67H157.361C157.361 426.64 157.72 427.495 158.407 428.182L159.821 426.767ZM159.361 425.67C159.361 425.239 159.504 424.891 159.821 424.574L158.407 423.159C157.72 423.846 157.361 424.701 157.361 425.67H159.361ZM159.821 424.574C160.138 424.257 160.486 424.114 160.918 424.114V422.114C159.948 422.114 159.093 422.473 158.407 423.159L159.821 424.574ZM160.918 424.114C161.349 424.114 161.697 424.257 162.014 424.574L163.429 423.159C162.742 422.473 161.887 422.114 160.918 422.114V424.114ZM162.014 424.574C162.332 424.891 162.474 425.239 162.474 425.67H164.474C164.474 424.701 164.115 423.846 163.429 423.159L162.014 424.574ZM162.474 425.67C162.474 425.955 162.405 426.2 162.266 426.428L163.973 427.469C164.308 426.921 164.474 426.314 164.474 425.67H162.474ZM162.256 426.444C162.114 426.688 161.924 426.881 161.675 427.033L162.717 428.74C163.245 428.418 163.671 427.987 163.982 427.454L162.256 426.444ZM161.682 427.029C161.469 427.156 161.223 427.227 160.918 427.227V429.227C161.559 429.227 162.165 429.071 162.711 428.744L161.682 427.029ZM169.433 428H168.433V429H169.433V428ZM169.433 425.443L168.695 424.769L168.433 425.055V425.443H169.433ZM179.036 414.932L178.298 414.257L178.297 414.257L179.036 414.932ZM181.82 411.722L182.6 412.347L182.603 412.343L181.82 411.722ZM183.439 409.136L182.524 408.732L182.522 408.737L183.439 409.136ZM183.24 403.923L182.4 404.466L182.405 404.473L183.24 403.923ZM181.251 402.19L181.686 401.29L181.686 401.29L181.251 402.19ZM175.484 402.276L175.967 403.151L175.971 403.149L175.484 402.276ZM173.567 404.193L172.691 403.71L172.687 403.718L173.567 404.193ZM172.899 407.091V408.091H173.899V407.091H172.899ZM169.547 407.091H168.547V408.091H169.547V407.091ZM170.726 402.602L171.579 403.123L171.579 403.123L170.726 402.602ZM173.936 399.591L173.469 398.707L173.467 398.708L173.936 399.591ZM183.055 399.591L183.535 398.713L183.535 398.713L183.055 399.591ZM186.152 402.503L185.299 403.025L186.152 402.503ZM186.692 409.719L185.757 409.364L185.755 409.369L186.692 409.719ZM184.703 413.114L183.906 412.51L183.905 412.511L184.703 413.114ZM180.797 417.659L181.527 418.342L181.529 418.341L180.797 417.659ZM174.263 424.648L173.532 423.965L173.263 424.253V424.648H174.263ZM174.263 424.875H173.263V425.875H174.263V424.875ZM187.786 424.875H188.786V423.875H187.786V424.875ZM187.786 428V429H188.786V428H187.786ZM170.433 428V425.443H168.433V428H170.433ZM170.172 426.118L179.774 415.606L178.297 414.257L168.695 424.769L170.172 426.118ZM179.773 415.607C180.909 414.366 181.852 413.279 182.6 412.347L181.04 411.096C180.328 411.983 179.416 413.035 178.298 414.257L179.773 415.607ZM182.603 412.343C183.369 411.378 183.961 410.442 184.356 409.535L182.522 408.737C182.216 409.441 181.728 410.228 181.036 411.1L182.603 412.343ZM184.354 409.541C184.77 408.599 184.979 407.609 184.979 406.58H182.979C182.979 407.33 182.828 408.045 182.524 408.732L184.354 409.541ZM184.979 406.58C184.979 405.39 184.69 404.307 184.075 403.373L182.405 404.473C182.775 405.036 182.979 405.724 182.979 406.58H184.979ZM184.08 403.381C183.492 402.47 182.686 401.773 181.686 401.29L180.816 403.091C181.503 403.422 182.022 403.88 182.4 404.466L184.08 403.381ZM181.686 401.29C180.692 400.81 179.594 400.58 178.411 400.58V402.58C179.33 402.58 180.125 402.757 180.816 403.091L181.686 401.29ZM178.411 400.58C177.152 400.58 176.004 400.842 174.998 401.402L175.971 403.149C176.632 402.781 177.434 402.58 178.411 402.58V400.58ZM175.001 401.4C174.012 401.946 173.237 402.721 172.691 403.71L174.442 404.676C174.806 404.018 175.309 403.515 175.967 403.151L175.001 401.4ZM172.687 403.718C172.15 404.712 171.899 405.847 171.899 407.091H173.899C173.899 406.119 174.094 405.322 174.447 404.668L172.687 403.718ZM172.899 406.091H169.547V408.091H172.899V406.091ZM170.547 407.091C170.547 405.546 170.901 404.235 171.579 403.123L169.872 402.081C168.979 403.546 168.547 405.227 168.547 407.091H170.547ZM171.579 403.123C172.27 401.991 173.207 401.111 174.405 400.474L173.467 398.708C171.957 399.51 170.753 400.638 169.872 402.081L171.579 403.123ZM174.403 400.475C175.609 399.839 176.975 399.511 178.524 399.511V397.511C176.683 397.511 174.991 397.904 173.469 398.707L174.403 400.475ZM178.524 399.511C180.084 399.511 181.426 399.839 182.576 400.468L183.535 398.713C182.053 397.903 180.373 397.511 178.524 397.511V399.511ZM182.576 400.468C183.746 401.108 184.647 401.96 185.299 403.025L187.005 401.981C186.161 400.603 184.997 399.513 183.535 398.713L182.576 400.468ZM185.299 403.025C185.947 404.082 186.274 405.259 186.274 406.58H188.274C188.274 404.908 187.854 403.367 187.005 401.981L185.299 403.025ZM186.274 406.58C186.274 407.526 186.103 408.452 185.757 409.364L187.627 410.074C188.057 408.94 188.274 407.774 188.274 406.58H186.274ZM185.755 409.369C185.422 410.26 184.818 411.306 183.906 412.51L185.5 413.717C186.482 412.422 187.204 411.204 187.628 410.069L185.755 409.369ZM183.905 412.511C182.997 413.713 181.72 415.2 180.065 416.978L181.529 418.341C183.207 416.538 184.535 414.995 185.501 413.717L183.905 412.511ZM180.066 416.976L173.532 423.965L174.993 425.331L181.527 418.342L180.066 416.976ZM173.263 424.648V424.875H175.263V424.648H173.263ZM174.263 425.875H187.786V423.875H174.263V425.875ZM186.786 424.875V428H188.786V424.875H186.786ZM187.786 427H169.433V429H187.786V427ZM206.209 413.966H207.209V412.966H206.209V413.966ZM206.209 417.091V418.091H207.209V417.091H206.209ZM193.482 417.091H192.482V418.091H193.482V417.091ZM193.482 413.966V412.966H192.482V413.966H193.482ZM205.209 413.966V417.091H207.209V413.966H205.209ZM206.209 416.091H193.482V418.091H206.209V416.091ZM194.482 417.091V413.966H192.482V417.091H194.482ZM193.482 414.966H206.209V412.966H193.482V414.966ZM212.107 428H211.107V429H212.107V428ZM212.107 406.182V405.182H211.107V406.182H212.107ZM215.46 406.182H216.46V405.182H215.46V406.182ZM215.46 428V429H216.46V428H215.46ZM212.121 401.878L211.429 402.6L211.437 402.606L212.121 401.878ZM212.121 398.668L211.437 397.939L211.429 397.946L212.121 398.668ZM215.488 398.668L214.796 399.389L214.803 399.396L215.488 398.668ZM215.488 401.878L214.803 401.149L214.796 401.156L215.488 401.878ZM213.107 428V406.182H211.107V428H213.107ZM212.107 407.182H215.46V405.182H212.107V407.182ZM214.46 406.182V428H216.46V406.182H214.46ZM215.46 427H212.107V429H215.46V427ZM213.812 401.545C213.411 401.545 213.093 401.419 212.806 401.149L211.437 402.606C212.097 403.227 212.905 403.545 213.812 403.545V401.545ZM212.814 401.156C212.54 400.894 212.425 400.617 212.425 400.273H210.425C210.425 401.179 210.775 401.972 211.429 402.6L212.814 401.156ZM212.425 400.273C212.425 399.929 212.54 399.652 212.814 399.389L211.429 397.946C210.775 398.573 210.425 399.367 210.425 400.273H212.425ZM212.806 399.396C213.093 399.127 213.411 399 213.812 399V397C212.905 397 212.097 397.319 211.437 397.939L212.806 399.396ZM213.812 399C214.212 399 214.521 399.126 214.796 399.389L216.18 397.946C215.527 397.319 214.719 397 213.812 397V399ZM214.803 399.396C215.084 399.661 215.198 399.936 215.198 400.273H217.198C217.198 399.36 216.838 398.565 216.173 397.939L214.803 399.396ZM215.198 400.273C215.198 400.61 215.084 400.885 214.803 401.149L216.173 402.606C216.838 401.981 217.198 401.186 217.198 400.273H215.198ZM214.796 401.156C214.521 401.419 214.212 401.545 213.812 401.545V403.545C214.719 403.545 215.527 403.226 216.18 402.6L214.796 401.156ZM224.952 428V429H225.952V428H224.952ZM221.599 428H220.599V429H221.599V428ZM221.599 406.182V405.182H220.599V406.182H221.599ZM224.838 406.182H225.838V405.182H224.838V406.182ZM224.838 409.591H223.838V410.591H224.838V409.591ZM225.122 409.591V410.591H225.762L226.03 410.01L225.122 409.591ZM227.452 406.92L227.994 407.761L227.999 407.757L227.452 406.92ZM235.364 406.807L234.884 407.684L234.89 407.687L235.364 406.807ZM237.949 409.534L237.056 409.984L237.057 409.987L237.949 409.534ZM238.872 428V429H239.872V428H238.872ZM235.52 428H234.52V429H235.52V428ZM234.185 410.358L233.449 411.036L233.453 411.039L234.185 410.358ZM227.651 409.605L227.168 408.729L227.164 408.731L227.651 409.605ZM225.676 411.636L224.797 411.159L224.797 411.159L225.676 411.636ZM223.952 414.875V428H225.952V414.875H223.952ZM224.952 427H221.599V429H224.952V427ZM222.599 428V406.182H220.599V428H222.599ZM221.599 407.182H224.838V405.182H221.599V407.182ZM223.838 406.182V409.591H225.838V406.182H223.838ZM224.838 410.591H225.122V408.591H224.838V410.591ZM226.03 410.01C226.461 409.077 227.109 408.332 227.994 407.761L226.909 406.08C225.711 406.854 224.806 407.889 224.214 409.172L226.03 410.01ZM227.999 407.757C228.833 407.211 229.971 406.898 231.486 406.898V404.898C229.705 404.898 228.153 405.266 226.904 406.084L227.999 407.757ZM231.486 406.898C232.824 406.898 233.946 407.171 234.884 407.684L235.844 405.929C234.565 405.23 233.102 404.898 231.486 404.898V406.898ZM234.89 407.687C235.801 408.178 236.524 408.929 237.056 409.984L238.842 409.084C238.143 407.696 237.142 406.629 235.838 405.926L234.89 407.687ZM237.057 409.987C237.58 411.017 237.872 412.383 237.872 414.136H239.872C239.872 412.178 239.548 410.475 238.84 409.081L237.057 409.987ZM237.872 414.136V428H239.872V414.136H237.872ZM238.872 427H235.52V429H238.872V427ZM236.52 428V414.364H234.52V428H236.52ZM236.52 414.364C236.52 412.478 236.027 410.87 234.917 409.677L233.453 411.039C234.122 411.759 234.52 412.821 234.52 414.364H236.52ZM234.92 409.68C233.806 408.471 232.297 407.909 230.52 407.909V409.909C231.849 409.909 232.783 410.313 233.449 411.036L234.92 409.68ZM230.52 407.909C229.3 407.909 228.175 408.175 227.168 408.729L228.133 410.481C228.812 410.107 229.599 409.909 230.52 409.909V407.909ZM227.164 408.731C226.155 409.294 225.365 410.113 224.797 411.159L226.555 412.113C226.953 411.379 227.48 410.845 228.137 410.479L227.164 408.731ZM224.797 411.159C224.217 412.229 223.952 413.481 223.952 414.875H225.952C225.952 413.731 226.169 412.824 226.555 412.113L224.797 411.159ZM260.452 411.068L260.725 412.03L261.734 411.745L261.401 410.75L260.452 411.068ZM257.441 411.92L256.505 412.274L256.83 413.133L257.713 412.883L257.441 411.92ZM256.603 410.457L255.801 411.055L255.808 411.064L255.814 411.072L256.603 410.457ZM255.126 409.264L255.573 408.37L255.573 408.37L255.126 409.264ZM249.387 409.719L249.954 410.543L249.956 410.541L249.387 409.719ZM248.975 414.009L248.352 414.791L248.352 414.791L248.975 414.009ZM251.816 415.216L251.574 416.186L251.578 416.187L251.816 415.216ZM255.055 416.011L254.816 416.983L254.819 416.983L255.055 416.011ZM259.415 418.185L258.701 418.885L258.705 418.888L259.415 418.185ZM259.771 425.273L258.963 424.683L258.96 424.688L259.771 425.273ZM246.802 427.006L247.354 426.172L247.354 426.172L246.802 427.006ZM244.032 422.773L243.789 421.803L242.856 422.036L243.053 422.977L244.032 422.773ZM247.214 421.977L248.182 421.727L247.934 420.766L246.971 421.007L247.214 421.977ZM248.933 424.619L248.361 425.44L248.365 425.443L248.933 424.619ZM255.992 424.506L256.577 425.317L256.579 425.315L255.992 424.506ZM256.589 420.188L255.888 420.901L255.895 420.907L256.589 420.188ZM254.146 419.023L253.917 419.996L253.919 419.997L254.146 419.023ZM250.509 418.17L250.279 419.144L250.281 419.144L250.509 418.17ZM246.106 415.969L245.372 416.648L245.378 416.655L246.106 415.969ZM245.751 408.938L244.947 408.343L244.943 408.348L245.751 408.938ZM248.606 406.707L248.199 405.794L248.196 405.795L248.606 406.707ZM257.81 407.318L257.201 408.111L257.204 408.113L257.81 407.318ZM260.18 410.106L257.169 410.958L257.713 412.883L260.725 412.03L260.18 410.106ZM258.377 411.567C258.148 410.961 257.815 410.386 257.391 409.842L255.814 411.072C256.129 411.476 256.356 411.876 256.505 412.274L258.377 411.567ZM257.405 409.86C256.938 409.233 256.315 408.741 255.573 408.37L254.678 410.159C255.186 410.412 255.549 410.716 255.801 411.055L257.405 409.86ZM255.573 408.37C254.765 407.966 253.798 407.795 252.725 407.795V409.795C253.603 409.795 254.236 409.937 254.678 410.159L255.573 408.37ZM252.725 407.795C251.235 407.795 249.911 408.141 248.818 408.896L249.956 410.541C250.643 410.066 251.545 409.795 252.725 409.795V407.795ZM248.82 408.895C247.713 409.657 247.066 410.717 247.066 412.034H249.066C249.066 411.476 249.3 410.992 249.954 410.543L248.82 408.895ZM247.066 412.034C247.066 413.146 247.488 414.102 248.352 414.791L249.598 413.226C249.25 412.949 249.066 412.589 249.066 412.034H247.066ZM248.352 414.791C249.123 415.405 250.232 415.851 251.574 416.186L252.059 414.246C250.824 413.937 250.04 413.578 249.598 413.226L248.352 414.791ZM251.578 416.187L254.816 416.983L255.293 415.04L252.055 414.245L251.578 416.187ZM254.819 416.983C256.668 417.432 257.924 418.092 258.701 418.885L260.129 417.485C258.994 416.327 257.343 415.538 255.291 415.04L254.819 416.983ZM258.705 418.888C259.453 419.643 259.85 420.624 259.85 421.92H261.85C261.85 420.167 261.291 418.658 260.126 417.481L258.705 418.888ZM259.85 421.92C259.85 422.964 259.554 423.874 258.963 424.683L260.578 425.863C261.426 424.702 261.85 423.377 261.85 421.92H259.85ZM258.96 424.688C258.368 425.508 257.523 426.181 256.382 426.688L257.194 428.516C258.609 427.887 259.753 427.007 260.582 425.858L258.96 424.688ZM256.382 426.688C255.255 427.189 253.912 427.455 252.327 427.455V429.455C254.133 429.455 255.763 429.152 257.194 428.516L256.382 426.688ZM252.327 427.455C250.245 427.455 248.609 427.003 247.354 426.172L246.25 427.839C247.911 428.94 249.959 429.455 252.327 429.455V427.455ZM247.354 426.172C246.135 425.364 245.35 424.19 245.011 422.568L243.053 422.977C243.49 425.067 244.552 426.715 246.25 427.839L247.354 426.172ZM244.274 423.743L247.456 422.947L246.971 421.007L243.789 421.803L244.274 423.743ZM246.246 422.227C246.597 423.589 247.288 424.692 248.361 425.44L249.504 423.799C248.892 423.372 248.437 422.714 248.182 421.727L246.246 422.227ZM248.365 425.443C249.431 426.177 250.76 426.5 252.271 426.5V424.5C251.035 424.5 250.139 424.236 249.5 423.796L248.365 425.443ZM252.271 426.5C253.965 426.5 255.435 426.141 256.577 425.317L255.407 423.695C254.713 424.196 253.701 424.5 252.271 424.5V426.5ZM256.579 425.315C257.702 424.502 258.384 423.422 258.384 422.091H256.384C256.384 422.635 256.139 423.165 255.405 423.696L256.579 425.315ZM258.384 422.091C258.384 421.07 258.015 420.173 257.283 419.468L255.895 420.907C256.223 421.224 256.384 421.596 256.384 422.091H258.384ZM257.289 419.474C256.577 418.774 255.564 418.326 254.372 418.049L253.919 419.997C254.924 420.231 255.54 420.559 255.888 420.901L257.289 419.474ZM254.374 418.049L250.737 417.197L250.281 419.144L253.917 419.996L254.374 418.049ZM250.74 417.197C248.842 416.748 247.585 416.08 246.833 415.283L245.378 416.655C246.501 417.846 248.18 418.646 250.279 419.144L250.74 417.197ZM246.84 415.29C246.101 414.49 245.714 413.486 245.714 412.205H243.714C243.714 413.934 244.255 415.44 245.372 416.648L246.84 415.29ZM245.714 412.205C245.714 411.174 245.999 410.294 246.558 409.527L244.943 408.348C244.12 409.475 243.714 410.773 243.714 412.205H245.714ZM246.555 409.532C247.142 408.739 247.95 408.098 249.015 407.62L248.196 405.795C246.856 406.397 245.761 407.242 244.947 408.343L246.555 409.532ZM249.013 407.621C250.078 407.146 251.309 406.898 252.725 406.898V404.898C251.073 404.898 249.558 405.189 248.199 405.794L249.013 407.621ZM252.725 406.898C254.748 406.898 256.201 407.342 257.201 408.111L258.42 406.526C256.957 405.4 255.02 404.898 252.725 404.898V406.898ZM257.204 408.113C258.277 408.933 259.044 410.013 259.504 411.386L261.401 410.75C260.819 409.018 259.825 407.598 258.417 406.523L257.204 408.113ZM275.385 406.182H276.385V405.182H275.385V406.182ZM275.385 409.023V410.023H276.385V409.023H275.385ZM264.078 409.023H263.078V410.023H264.078V409.023ZM264.078 406.182V405.182H263.078V406.182H264.078ZM267.374 400.955V399.955H266.374V400.955H267.374ZM270.726 400.955H271.726V399.955H270.726V400.955ZM271.138 423.881L270.273 424.382L270.279 424.393L270.285 424.403L271.138 423.881ZM272.217 424.818L271.871 425.756L271.883 425.761L271.895 425.765L272.217 424.818ZM274.533 424.989L274.691 425.976L274.71 425.973L274.729 425.969L274.533 424.989ZM275.101 424.875L276.076 424.654L275.861 423.703L274.905 423.894L275.101 424.875ZM275.783 427.886L276.134 428.823L276.951 428.516L276.758 427.666L275.783 427.886ZM274.831 428.142L274.626 427.163L274.615 427.166L274.604 427.168L274.831 428.142ZM270.499 427.673L270.086 428.584L270.09 428.586L270.499 427.673ZM268.254 425.812L267.437 426.388L267.441 426.395L268.254 425.812ZM274.385 406.182V409.023H276.385V406.182H274.385ZM275.385 408.023H264.078V410.023H275.385V408.023ZM265.078 409.023V406.182H263.078V409.023H265.078ZM264.078 407.182H275.385V405.182H264.078V407.182ZM267.374 401.955H270.726V399.955H267.374V401.955ZM269.726 400.955V421.75H271.726V400.955H269.726ZM269.726 421.75C269.726 422.761 269.867 423.682 270.273 424.382L272.003 423.379C271.86 423.132 271.726 422.633 271.726 421.75H269.726ZM270.285 424.403C270.665 425.024 271.19 425.504 271.871 425.756L272.564 423.88C272.374 423.81 272.178 423.665 271.991 423.359L270.285 424.403ZM271.895 425.765C272.449 425.953 273.027 426.045 273.624 426.045V424.045C273.236 424.045 272.876 423.986 272.54 423.872L271.895 425.765ZM273.624 426.045C274.021 426.045 274.382 426.026 274.691 425.976L274.375 424.001C274.21 424.028 273.965 424.045 273.624 424.045V426.045ZM274.729 425.969C274.966 425.922 275.155 425.884 275.297 425.856L274.905 423.894C274.763 423.923 274.573 423.961 274.337 424.008L274.729 425.969ZM274.126 425.096L274.807 428.107L276.758 427.666L276.076 424.654L274.126 425.096ZM275.432 426.95C275.274 427.009 275.013 427.082 274.626 427.163L275.036 429.121C275.463 429.031 275.837 428.934 276.134 428.823L275.432 426.95ZM274.604 427.168C274.298 427.239 273.865 427.284 273.283 427.284V429.284C273.95 429.284 274.549 429.234 275.057 429.116L274.604 427.168ZM273.283 427.284C272.484 427.284 271.695 427.113 270.907 426.761L270.09 428.586C271.121 429.048 272.188 429.284 273.283 429.284V427.284ZM270.911 426.762C270.178 426.43 269.566 425.926 269.067 425.23L267.441 426.395C268.136 427.365 269.02 428.102 270.086 428.584L270.911 426.762ZM269.072 425.237C268.63 424.609 268.374 423.773 268.374 422.659H266.374C266.374 424.083 266.705 425.349 267.437 426.388L269.072 425.237ZM268.374 422.659V400.955H266.374V422.659H268.374Z" fill="#545454" mask="url(#path-1-outside-1_376_445)"/>
<path d="M146 358.774L151.774 353L146 347.226L140.226 353L146 358.774ZM146.707 315.293C146.317 314.902 145.683 314.902 145.293 315.293L138.929 321.657C138.538 322.047 138.538 322.681 138.929 323.071C139.319 323.462 139.953 323.462 140.343 323.071L146 317.414L151.657 323.071C152.047 323.462 152.681 323.462 153.071 323.071C153.462 322.681 153.462 322.047 153.071 321.657L146.707 315.293ZM147 353L147 316L145 316L145 353L147 353Z" fill="#545454"/>
<path d="M251.999 393.774L257.773 388L251.999 382.226L246.226 388L251.999 393.774ZM251.999 383.5L252.999 383.5V383.5L251.999 383.5ZM146 358.833C148.946 358.833 151.333 356.446 151.333 353.5C151.333 350.554 148.946 348.167 146 348.167C143.054 348.167 140.667 350.554 140.667 353.5C140.667 356.446 143.054 358.833 146 358.833ZM252.999 388L252.999 383.5L250.999 383.5L250.999 388L252.999 388ZM221.999 352.5L146 352.5L146 354.5L221.999 354.5L221.999 352.5ZM252.999 383.5C252.999 366.379 239.12 352.5 221.999 352.5L221.999 354.5C238.015 354.5 250.999 367.484 250.999 383.5L252.999 383.5Z" fill="#545454"/>
<path d="M45 394.274L39.2265 388.5L45 382.726L50.7735 388.5L45 394.274ZM45 383.433L44 383.433V383.433L45 383.433ZM146 358.766C143.054 358.766 140.667 356.378 140.667 353.433C140.667 350.487 143.054 348.1 146 348.1C148.946 348.1 151.333 350.487 151.333 353.433C151.333 356.378 148.946 358.766 146 358.766ZM44 388.5L44 383.433L46 383.433L46 388.5L44 388.5ZM75 352.433L146 352.433L146 354.433L75 354.433L75 352.433ZM44 383.433C44 366.312 57.8792 352.433 75 352.433L75 354.433C58.9837 354.433 46 367.417 46 383.433L44 383.433Z" fill="#545454"/>
<path d="M146 125.226L140.226 131L146 136.774L151.774 131L146 125.226ZM146 158.667C143.054 158.667 140.667 161.054 140.667 164C140.667 166.946 143.054 169.333 146 169.333C148.946 169.333 151.333 166.946 151.333 164C151.333 161.054 148.946 158.667 146 158.667ZM145 131L145 164L147 164L147 131L145 131Z" fill="#545454"/>
<path d="M251.999 90.7265L257.773 96.5L251.999 102.274L246.226 96.5L251.999 90.7265ZM251.999 101L252.999 101V101L251.999 101ZM146 125.667C148.946 125.667 151.333 128.054 151.333 131C151.333 133.946 148.946 136.333 146 136.333C143.054 136.333 140.667 133.946 140.667 131C140.667 128.054 143.054 125.667 146 125.667ZM252.999 96.5L252.999 101L250.999 101L250.999 96.5L252.999 96.5ZM221.999 132L146 132L146 130L221.999 130L221.999 132ZM252.999 101C252.999 118.121 239.12 132 221.999 132L221.999 130C238.015 130 250.999 117.016 250.999 101L252.999 101Z" fill="#545454"/>
<path d="M45 90.2265L39.2265 96L45 101.774L50.7735 96L45 90.2265ZM45 101.067L44 101.067V101.067L45 101.067ZM146 125.734C143.054 125.734 140.667 128.122 140.667 131.067C140.667 134.013 143.054 136.4 146 136.4C148.946 136.4 151.333 134.013 151.333 131.067C151.333 128.122 148.946 125.734 146 125.734ZM44 96L44 101.067L46 101.067L46 96L44 96ZM75 132.067L146 132.067L146 130.067L75 130.067L75 132.067ZM44 101.067C44 118.188 57.8792 132.067 75 132.067L75 130.067C58.9837 130.067 46 117.083 46 101.067L44 101.067Z" fill="#545454"/>
<path d="M67.6996 24.4545C67.6996 27.589 67.1125 30.2737 65.9382 32.5085C64.7734 34.7339 63.1825 36.4384 61.1655 37.6222C59.1579 38.8059 56.8804 39.3977 54.3331 39.3977C51.7857 39.3977 49.5036 38.8059 47.4865 37.6222C45.4789 36.429 43.888 34.7197 42.7138 32.4943C41.549 30.2595 40.9666 27.5795 40.9666 24.4545C40.9666 21.3201 41.549 18.6402 42.7138 16.4148C43.888 14.1799 45.4789 12.4706 47.4865 11.2869C49.5036 10.1032 51.7857 9.51136 54.3331 9.51136C56.8804 9.51136 59.1579 10.1032 61.1655 11.2869C63.1825 12.4706 64.7734 14.1799 65.9382 16.4148C67.1125 18.6402 67.6996 21.3201 67.6996 24.4545ZM62.4013 24.4545C62.4013 22.2481 62.0556 20.3873 61.3643 18.8722C60.6825 17.3475 59.7356 16.197 58.5234 15.4205C57.3113 14.6345 55.9145 14.2415 54.3331 14.2415C52.7517 14.2415 51.3549 14.6345 50.1428 15.4205C48.9306 16.197 47.9789 17.3475 47.2876 18.8722C46.6058 20.3873 46.2649 22.2481 46.2649 24.4545C46.2649 26.661 46.6058 28.5265 47.2876 30.0511C47.9789 31.5663 48.9306 32.7169 50.1428 33.5028C51.3549 34.2794 52.7517 34.6676 54.3331 34.6676C55.9145 34.6676 57.3113 34.2794 58.5234 33.5028C59.7356 32.7169 60.6825 31.5663 61.3643 30.0511C62.0556 28.5265 62.4013 26.661 62.4013 24.4545ZM77.5966 26.2159V39H72.4545V17.1818H77.3693V20.8892H77.625C78.1269 19.6676 78.9271 18.697 80.0256 17.9773C81.1335 17.2576 82.5019 16.8977 84.1307 16.8977C85.6364 16.8977 86.9479 17.2197 88.0653 17.8636C89.1922 18.5076 90.0634 19.4403 90.679 20.6619C91.304 21.8835 91.6117 23.3655 91.6023 25.108V39H86.4602V25.9034C86.4602 24.4451 86.0814 23.304 85.3239 22.4801C84.5758 21.6562 83.5388 21.2443 82.2131 21.2443C81.3134 21.2443 80.5133 21.4432 79.8125 21.8409C79.1212 22.2292 78.5767 22.7926 78.179 23.5312C77.7907 24.2699 77.5966 25.1648 77.5966 26.2159ZM110.054 24.767V29H96.9574V24.767H110.054ZM125.548 39H115.69V9.90909H125.746C128.635 9.90909 131.116 10.4915 133.19 11.6562C135.273 12.8116 136.873 14.4735 137.991 16.642C139.108 18.8106 139.667 21.4053 139.667 24.4261C139.667 27.4564 139.103 30.0606 137.977 32.2386C136.859 34.4167 135.245 36.0881 133.133 37.2528C131.031 38.4176 128.502 39 125.548 39ZM120.96 34.4403H125.292C127.318 34.4403 129.009 34.071 130.363 33.3324C131.717 32.5843 132.735 31.4716 133.417 29.9943C134.099 28.5076 134.44 26.6515 134.44 24.4261C134.44 22.2008 134.099 20.3542 133.417 18.8864C132.735 17.4091 131.727 16.3059 130.391 15.5767C129.066 14.8381 127.418 14.4688 125.448 14.4688H120.96V34.4403ZM154.106 39.4261C151.918 39.4261 150.029 38.9716 148.438 38.0625C146.857 37.1439 145.64 35.8466 144.788 34.1705C143.935 32.4848 143.509 30.5009 143.509 28.2188C143.509 25.9744 143.935 24.0047 144.788 22.3097C145.649 20.6051 146.852 19.2794 148.396 18.3324C149.939 17.3759 151.753 16.8977 153.836 16.8977C155.181 16.8977 156.45 17.1155 157.643 17.5511C158.845 17.9773 159.906 18.6402 160.825 19.5398C161.753 20.4394 162.482 21.5852 163.012 22.9773C163.542 24.3598 163.808 26.0076 163.808 27.9205V29.4972H145.924V26.0312H158.879C158.869 25.0464 158.656 24.1705 158.239 23.4034C157.823 22.6269 157.24 22.0161 156.492 21.571C155.754 21.1259 154.892 20.9034 153.907 20.9034C152.856 20.9034 151.933 21.1591 151.137 21.6705C150.342 22.1723 149.721 22.8352 149.276 23.6591C148.841 24.4735 148.618 25.3684 148.609 26.3438V29.3693C148.609 30.6383 148.841 31.7273 149.305 32.6364C149.769 33.536 150.417 34.2273 151.251 34.7102C152.084 35.1837 153.059 35.4205 154.177 35.4205C154.925 35.4205 155.602 35.3163 156.208 35.108C156.814 34.8902 157.34 34.5729 157.785 34.1562C158.23 33.7396 158.566 33.2235 158.793 32.608L163.594 33.1477C163.291 34.4167 162.714 35.5246 161.862 36.4716C161.019 37.4091 159.939 38.1383 158.623 38.6591C157.307 39.1705 155.801 39.4261 154.106 39.4261ZM187.021 17.1818L179.251 39H173.57L165.8 17.1818H171.283L176.297 33.3892H176.524L181.553 17.1818H187.021ZM190.58 39V17.1818H195.722V39H190.58ZM193.165 14.0852C192.35 14.0852 191.65 13.8153 191.062 13.2756C190.475 12.7263 190.182 12.0682 190.182 11.3011C190.182 10.5246 190.475 9.86648 191.062 9.3267C191.65 8.77746 192.35 8.50284 193.165 8.50284C193.989 8.50284 194.689 8.77746 195.267 9.3267C195.854 9.86648 196.148 10.5246 196.148 11.3011C196.148 12.0682 195.854 12.7263 195.267 13.2756C194.689 13.8153 193.989 14.0852 193.165 14.0852ZM210.526 39.4261C208.348 39.4261 206.478 38.9479 204.915 37.9915C203.362 37.035 202.165 35.714 201.322 34.0284C200.488 32.3333 200.072 30.3826 200.072 28.1761C200.072 25.9602 200.498 24.0047 201.35 22.3097C202.202 20.6051 203.405 19.2794 204.958 18.3324C206.521 17.3759 208.367 16.8977 210.498 16.8977C212.269 16.8977 213.836 17.2244 215.2 17.8778C216.573 18.5218 217.666 19.4356 218.481 20.6193C219.295 21.7936 219.759 23.1667 219.873 24.7386H214.958C214.759 23.6875 214.286 22.8116 213.538 22.1108C212.799 21.4006 211.809 21.0455 210.569 21.0455C209.518 21.0455 208.594 21.3295 207.799 21.8977C207.004 22.4564 206.383 23.2614 205.938 24.3125C205.503 25.3636 205.285 26.6231 205.285 28.0909C205.285 29.5777 205.503 30.8561 205.938 31.9261C206.374 32.9867 206.985 33.8059 207.771 34.3835C208.566 34.9517 209.499 35.2358 210.569 35.2358C211.326 35.2358 212.004 35.0937 212.6 34.8097C213.206 34.5161 213.713 34.0947 214.12 33.5455C214.527 32.9962 214.807 32.3286 214.958 31.5426H219.873C219.75 33.0862 219.295 34.4545 218.509 35.6477C217.723 36.8314 216.653 37.7595 215.299 38.4318C213.945 39.0947 212.354 39.4261 210.526 39.4261ZM233.754 39.4261C231.567 39.4261 229.678 38.9716 228.087 38.0625C226.505 37.1439 225.288 35.8466 224.436 34.1705C223.584 32.4848 223.158 30.5009 223.158 28.2188C223.158 25.9744 223.584 24.0047 224.436 22.3097C225.298 20.6051 226.5 19.2794 228.044 18.3324C229.588 17.3759 231.401 16.8977 233.484 16.8977C234.829 16.8977 236.098 17.1155 237.291 17.5511C238.494 17.9773 239.554 18.6402 240.473 19.5398C241.401 20.4394 242.13 21.5852 242.661 22.9773C243.191 24.3598 243.456 26.0076 243.456 27.9205V29.4972H225.572V26.0312H238.527C238.518 25.0464 238.304 24.1705 237.888 23.4034C237.471 22.6269 236.889 22.0161 236.141 21.571C235.402 21.1259 234.54 20.9034 233.555 20.9034C232.504 20.9034 231.581 21.1591 230.786 21.6705C229.99 22.1723 229.37 22.8352 228.925 23.6591C228.489 24.4735 228.267 25.3684 228.257 26.3438V29.3693C228.257 30.6383 228.489 31.7273 228.953 32.6364C229.417 33.536 230.066 34.2273 230.899 34.7102C231.732 35.1837 232.708 35.4205 233.825 35.4205C234.573 35.4205 235.25 35.3163 235.857 35.108C236.463 34.8902 236.988 34.5729 237.433 34.1562C237.878 33.7396 238.214 33.2235 238.442 32.608L243.243 33.1477C242.94 34.4167 242.362 35.5246 241.51 36.4716C240.667 37.4091 239.588 38.1383 238.271 38.6591C236.955 39.1705 235.449 39.4261 233.754 39.4261ZM87.4084 87V57.9091H92.6783V82.5824H105.491V87H87.4084ZM114.979 57.9091V87H109.837V57.9091H114.979ZM126.545 87.4403C125.163 87.4403 123.918 87.1941 122.81 86.7017C121.711 86.1998 120.84 85.4612 120.196 84.4858C119.562 83.5104 119.244 82.3078 119.244 80.8778C119.244 79.6468 119.472 78.6288 119.926 77.8239C120.381 77.0189 121.001 76.375 121.787 75.892C122.573 75.4091 123.458 75.0445 124.443 74.7983C125.438 74.5426 126.465 74.358 127.526 74.2443C128.804 74.1117 129.841 73.9934 130.636 73.8892C131.432 73.7756 132.009 73.6051 132.369 73.3778C132.739 73.1411 132.923 72.7765 132.923 72.2841V72.1989C132.923 71.1288 132.606 70.3002 131.972 69.7131C131.337 69.1259 130.423 68.8324 129.23 68.8324C127.971 68.8324 126.972 69.107 126.233 69.6562C125.504 70.2055 125.011 70.8542 124.756 71.6023L119.955 70.9205C120.333 69.5947 120.958 68.4867 121.83 67.5966C122.701 66.697 123.766 66.0246 125.026 65.5795C126.285 65.125 127.677 64.8977 129.202 64.8977C130.253 64.8977 131.299 65.0208 132.341 65.267C133.383 65.5133 134.334 65.9205 135.196 66.4886C136.058 67.0473 136.749 67.8097 137.27 68.7756C137.8 69.7415 138.065 70.9489 138.065 72.3977V87H133.122V84.0028H132.952C132.639 84.6089 132.199 85.1771 131.631 85.7074C131.072 86.2282 130.366 86.6496 129.514 86.9716C128.671 87.2841 127.682 87.4403 126.545 87.4403ZM127.881 83.6619C128.913 83.6619 129.808 83.4583 130.565 83.0511C131.323 82.6345 131.905 82.0852 132.312 81.4034C132.729 80.7216 132.938 79.9782 132.938 79.1733V76.6023C132.777 76.7348 132.502 76.858 132.114 76.9716C131.735 77.0852 131.309 77.1847 130.835 77.2699C130.362 77.3551 129.893 77.4309 129.429 77.4972C128.965 77.5634 128.563 77.6203 128.222 77.6676C127.455 77.7718 126.768 77.9422 126.162 78.179C125.556 78.4157 125.078 78.7472 124.727 79.1733C124.377 79.59 124.202 80.1297 124.202 80.7926C124.202 81.7396 124.547 82.4545 125.239 82.9375C125.93 83.4205 126.811 83.6619 127.881 83.6619ZM143.236 87V65.1818H148.151V68.8892H148.406C148.861 67.6392 149.614 66.6638 150.665 65.9631C151.716 65.2528 152.971 64.8977 154.429 64.8977C155.906 64.8977 157.152 65.2576 158.165 65.9773C159.188 66.6875 159.907 67.6581 160.324 68.8892H160.551C161.034 67.6771 161.848 66.7112 162.994 65.9915C164.15 65.2623 165.518 64.8977 167.099 64.8977C169.107 64.8977 170.745 65.5322 172.014 66.8011C173.283 68.0701 173.918 69.9214 173.918 72.3551V87H168.761V73.1506C168.761 71.7964 168.402 70.8068 167.682 70.1818C166.962 69.5473 166.081 69.2301 165.04 69.2301C163.799 69.2301 162.829 69.6184 162.128 70.3949C161.437 71.1619 161.091 72.161 161.091 73.392V87H156.048V72.9375C156.048 71.8106 155.707 70.911 155.026 70.2386C154.353 69.5663 153.473 69.2301 152.384 69.2301C151.645 69.2301 150.973 69.4195 150.366 69.7983C149.76 70.1676 149.277 70.6932 148.918 71.375C148.558 72.0473 148.378 72.8333 148.378 73.733V87H143.236ZM185.413 87.4403C184.03 87.4403 182.785 87.1941 181.677 86.7017C180.578 86.1998 179.707 85.4612 179.063 84.4858C178.429 83.5104 178.112 82.3078 178.112 80.8778C178.112 79.6468 178.339 78.6288 178.793 77.8239C179.248 77.0189 179.868 76.375 180.654 75.892C181.44 75.4091 182.326 75.0445 183.31 74.7983C184.305 74.5426 185.332 74.358 186.393 74.2443C187.671 74.1117 188.708 73.9934 189.504 73.8892C190.299 73.7756 190.877 73.6051 191.237 73.3778C191.606 73.1411 191.79 72.7765 191.79 72.2841V72.1989C191.79 71.1288 191.473 70.3002 190.839 69.7131C190.204 69.1259 189.29 68.8324 188.097 68.8324C186.838 68.8324 185.839 69.107 185.1 69.6562C184.371 70.2055 183.879 70.8542 183.623 71.6023L178.822 70.9205C179.201 69.5947 179.826 68.4867 180.697 67.5966C181.568 66.697 182.633 66.0246 183.893 65.5795C185.152 65.125 186.544 64.8977 188.069 64.8977C189.12 64.8977 190.166 65.0208 191.208 65.267C192.25 65.5133 193.201 65.9205 194.063 66.4886C194.925 67.0473 195.616 67.8097 196.137 68.7756C196.667 69.7415 196.933 70.9489 196.933 72.3977V87H191.989V84.0028H191.819C191.506 84.6089 191.066 85.1771 190.498 85.7074C189.939 86.2282 189.234 86.6496 188.381 86.9716C187.539 87.2841 186.549 87.4403 185.413 87.4403ZM186.748 83.6619C187.78 83.6619 188.675 83.4583 189.433 83.0511C190.19 82.6345 190.772 82.0852 191.18 81.4034C191.596 80.7216 191.805 79.9782 191.805 79.1733V76.6023C191.644 76.7348 191.369 76.858 190.981 76.9716C190.602 77.0852 190.176 77.1847 189.702 77.2699C189.229 77.3551 188.76 77.4309 188.296 77.4972C187.832 77.5634 187.43 77.6203 187.089 77.6676C186.322 77.7718 185.635 77.9422 185.029 78.179C184.423 78.4157 183.945 78.7472 183.594 79.1733C183.244 79.59 183.069 80.1297 183.069 80.7926C183.069 81.7396 183.415 82.4545 184.106 82.9375C184.797 83.4205 185.678 83.6619 186.748 83.6619Z" fill="url(#paint0_linear_376_445)"/>
<defs>
<linearGradient id="paint0_linear_376_445" x1="0" y1="48" x2="284" y2="48" gradientUnits="userSpaceOnUse">
<stop stop-color="#3BFB44"/>
<stop offset="1" stop-color="#C906A2"/>
</linearGradient>
</defs>
</svg>
